<?xml version="1.0" encoding="utf-8"?>
<!-- Generator: Adobe Illustrator 23.0.1, SVG Export Plug-In . SVG Version: 6.00 Build 0)  -->
<svg version="1.1" id="Camada_1" xmlns="http://www.w3.org/2000/svg" xmlns:xlink="http://www.w3.org/1999/xlink" x="0px" y="0px"
	 viewBox="0 0 128 128" style="enable-background:new 0 0 128 128;" xml:space="preserve">
<style type="text/css">
	.st0{fill:#E58A27;}
	.st1{fill:#FFC90B;}
	.st2{fill:#EF4227;}
	.st3{fill:#FFFFFF;}
</style>
<g>
	<path class="st0" d="M36.2,44.7c4,0,7.4,2.9,8.2,6.9c0.7,3.7-1.4,7.8-5.1,9.2c-1.2,0.4-1.5,1-1.4,2.1c0,0.2,0,0.3,0,0.5
		c-0.3,2.1,0,3.6,2.4,4.7c2.9,1.4,4,4.3,3.8,7.5c-0.2,3.3-2,5.8-5.1,7.1c-1.2,0.5-1.7,1-1.5,2.2c0,0.3,0,0.5,0,0.8
		c-0.2,1.6,0.1,2.5,1.8,3.3c3,1.4,4.5,4.2,4.4,7.5c-0.1,3.5-1.8,6.1-5,7.4c-1.3,0.5-1.6,1.2-1.5,2.4c0,0.1,0,0.2,0,0.3
		c-0.4,2.1,0,3.5,2.3,4.6c3.4,1.7,4.7,5.9,3.5,9.6c-1.2,3.6-4.8,6.1-8.5,5.8c-4-0.3-7.1-3-7.8-6.8c-0.7-3.9,1.2-7.7,4.8-9.2
		c1.3-0.5,1.8-1.2,1.6-2.5c0-0.2,0-0.4,0-0.6c0.3-1.9,0-3.1-2.1-4.1c-2.9-1.4-4.3-4.2-4.1-7.5c0.2-3.4,1.8-6,5-7.3
		c1.3-0.5,1.8-1.2,1.6-2.5c0-0.3,0-0.6,0-0.9c0.3-1.4-0.2-2.1-1.6-2.8c-3.2-1.5-4.7-4.3-4.6-7.8c0.2-3.5,1.9-6,5.1-7.3
		c1.1-0.5,1.6-1,1.4-2.1c0-0.2,0-0.3,0-0.5c0.3-2.1-0.1-3.5-2.4-4.7c-3.3-1.6-4.6-5.7-3.5-9.3C29.1,47.1,32.4,44.6,36.2,44.7z"/>
	<path class="st0" d="M14.7,73.6c0.4-1.5-0.3-2.3-1.9-3.1c-3-1.5-4.4-4.2-4.3-7.5c0.1-3.5,1.9-6.1,5.2-7.4c1-0.4,1.5-0.8,1.3-1.9
		c0-0.1,0-0.2,0-0.3c0.3-2.2,0.1-3.9-2.5-5.1c-3.4-1.6-4.5-6.1-3.3-9.6c1.3-3.7,4.8-5.9,8.8-5.5c3.7,0.3,6.8,3.1,7.4,6.7
		c0.7,3.9-1.2,7.7-4.8,9.2c-1.4,0.6-1.8,1.3-1.7,2.6c0,0.2,0,0.3,0,0.5c-0.3,1.9,0.1,3.2,2.2,4.2c3,1.4,4.2,4.3,4,7.7
		c-0.2,3.4-2,5.8-5,7.1c-1.2,0.5-1.7,1.1-1.5,2.4c0,0.2,0,0.3,0,0.5c-0.2,1.7,0.1,2.7,1.9,3.5c3.2,1.5,4.6,4.5,4.3,8
		c-0.3,3.3-2.1,5.7-5.2,7c-1.1,0.4-1.5,0.9-1.3,2c0,0.3,0,0.6,0,0.9c-0.3,1.9,0.2,3.2,2.2,4.2c3.5,1.7,4.8,6,3.6,9.7
		c-1.2,3.7-4.8,6-8.8,5.7c-3.7-0.3-6.8-3.2-7.5-7c-0.7-3.7,1.4-7.6,4.9-9c1.3-0.5,1.8-1.2,1.6-2.5c0-0.2,0-0.3,0-0.5
		c0.3-2,0-3.3-2.2-4.3c-2.9-1.3-4.1-4.2-4-7.4c0.1-3.2,1.7-5.6,4.6-7.1C14.6,76,14.7,76,14.7,73.6z"/>
	<path class="st1" d="M84.3,86.5c-0.1-3.5,1.3-6.3,4.5-7.9c3.1-1.6,6.3-1.4,9.1,0.8c0.9,0.7,1.5,0.7,2.3,0.1
		c0.3-0.2,0.6-0.4,0.9-0.5c1.8-0.7,2.6-1.7,2.4-3.9c-0.3-3.9,2.6-7.1,6.4-8.1c3.7-0.9,7.7,0.9,9.4,4.3c1.8,3.5,1,7.6-2,10.2
		c-2.9,2.5-7.3,2.9-10.3,0.5c-1.1-0.9-1.9-0.9-3-0.1c-0.2,0.2-0.5,0.4-0.8,0.5c-1.6,0.6-2.3,1.5-2.1,3.5c0.3,3.4-1.5,6-4.5,7.6
		c-3,1.5-6.1,1.3-8.8-0.7c-1-0.8-1.7-0.9-2.7-0.1c-0.2,0.2-0.4,0.3-0.7,0.4c-1.5,0.6-2,1.5-1.9,3.3c0.3,3.4-1.4,6-4.4,7.6
		c-3.1,1.6-6.2,1.4-8.9-0.7c-1-0.7-1.6-0.8-2.5-0.1c-0.2,0.2-0.5,0.3-0.8,0.5c-1.8,0.7-2.6,1.7-2.4,3.9c0.3,3.9-2.5,7.1-6.4,8.1
		c-3.7,0.9-7.6-0.8-9.4-4.2c-1.8-3.3-1.1-7.5,1.7-10.1c2.8-2.6,7.2-3.2,10.3-0.9c1.4,1.1,2.4,1,3.6,0c0.2-0.2,0.5-0.4,0.8-0.5
		c1.4-0.5,1.9-1.3,1.7-3c-0.3-3.4,1.3-6.2,4.4-7.8c3.1-1.7,6.1-1.5,8.9,0.6c1,0.7,1.7,0.9,2.7,0.1c0.3-0.3,0.7-0.4,1.1-0.6
		C84.4,88.3,84.4,88.3,84.3,86.5z"/>
	<path class="st1" d="M84.3,64.4c-0.1-3.5,1.3-6.3,4.5-7.9c3.1-1.6,6.2-1.3,9.1,0.8c0.8,0.6,1.3,0.8,2.1,0.2
		c0.3-0.3,0.7-0.5,1.1-0.6c1.8-0.7,2.6-1.7,2.4-3.9c-0.3-3.9,2.6-7.1,6.4-8.1c3.7-0.9,7.6,0.9,9.4,4.2c1.8,3.4,1.1,7.6-1.7,10.1
		c-2.9,2.6-7.2,3.2-10.3,0.8c-1.4-1.1-2.4-0.9-3.6,0c-0.3,0.2-0.7,0.5-1.1,0.6c-1.3,0.5-1.6,1.2-1.4,2.7c0.3,3.4-1.2,6.2-4.2,7.9
		c-3.1,1.7-6.2,1.6-9.1-0.5c-1-0.7-1.7-0.9-2.7-0.1c-0.1,0.1-0.3,0.2-0.4,0.2c-1.7,0.6-2.3,1.6-2.2,3.6c0.3,3.4-1.5,6-4.5,7.5
		c-3,1.5-6.1,1.3-8.8-0.8c-1-0.7-1.6-0.8-2.5-0.1c-0.3,0.3-0.7,0.5-1.1,0.6c-1.7,0.6-2.2,1.6-2.1,3.6c0.3,3.9-2.5,7.3-6.4,8.2
		c-3.7,0.9-7.7-0.9-9.4-4.4c-1.8-3.5-1-7.6,2-10.2c2.9-2.5,7.3-2.8,10.3-0.5c1.1,0.9,1.9,0.9,3,0.1c0.2-0.2,0.5-0.4,0.8-0.5
		c1.7-0.6,2.3-1.5,2.1-3.6c-0.3-3.4,1.5-6,4.5-7.6c3-1.5,6.1-1.3,8.8,0.7c1,0.8,1.8,0.8,2.7,0.1c0.3-0.2,0.6-0.4,0.9-0.5
		C84.4,66.2,84.4,66.2,84.3,64.4z"/>
	<path class="st2" d="M85,41.8c0.6-1.4-0.2-2.2-1.6-2.7c-0.4-0.2-0.8-0.4-1.2-0.7c-1.1-0.9-2-0.9-3.2,0c-2.7,2-5.8,2.1-8.8,0.4
		c-3-1.7-4.5-4.4-4.1-7.9c0.2-1.5-0.2-2.2-1.5-2.8c-0.5-0.2-1-0.5-1.5-0.9c-0.7-0.5-1.3-0.5-2,0.1c-2.9,2.2-6.2,2.5-9.3,0.6
		c-3.2-1.8-4.5-4.7-4.1-8.4c0.1-0.9-0.1-1.5-0.9-1.8c-0.1-0.1-0.3-0.1-0.4-0.2c-1.9-1.4-3.4-2-5.8-0.3c-3.1,2.1-7.5,0.9-10-2
		c-2.4-2.8-2.7-7-0.6-10.1C32.1,2,36.1,0.7,39.7,2c3.6,1.3,5.9,4.8,5.5,8.6c-0.1,1.3,0.1,2.1,1.3,2.5c0.2,0.1,0.4,0.2,0.5,0.3
		c1.6,1.1,2.9,1.6,4.9,0.2c2.6-1.9,5.7-1.6,8.5,0.2c2.8,1.8,4.1,4.4,3.8,7.7c-0.2,1.5,0.3,2.3,1.6,2.8c0.4,0.1,0.8,0.4,1.1,0.6
		c0.9,0.7,1.6,0.7,2.5-0.1c2.9-2.1,6.1-2.3,9.2-0.5c3.1,1.8,4.5,4.7,4,8.3c-0.1,1,0,1.6,1,2c0.2,0.1,0.4,0.2,0.5,0.3
		c1.8,1.4,3.3,1.7,5.5,0.2c3.1-2.1,7.4-1,9.9,1.7c2.6,2.8,2.9,7,0.8,10.2c-2.1,3.1-6,4.5-9.6,3.4C87.1,49.3,84.8,45.9,85,41.8z"/>
	<path class="st2" d="M63.2,42.9c-0.8,1.5,0.4,2.2,1.7,2.8c0.3,0.2,0.7,0.3,0.9,0.5c1.2,0.9,2.1,1,3.5,0c3.2-2.3,7.6-1.7,10.4,1
		c2.8,2.7,3.3,7.1,1.2,10.4c-2.1,3.3-6.3,4.7-10,3.4c-3.7-1.4-6-5.1-5.4-9.1c0.1-0.9,0-1.4-0.9-1.7c-0.2-0.1-0.5-0.2-0.7-0.4
		c-1.8-1.4-3.3-1.8-5.5-0.3c-2.7,1.9-5.9,1.4-8.6-0.6c-2.7-1.9-3.9-4.7-3.4-8c0.1-0.8,0.1-1.4-0.8-1.7c-0.2-0.1-0.4-0.2-0.5-0.3
		c-1.6-1.2-2.9-1.6-4.9-0.2c-2.8,1.9-6,1.6-8.8-0.4c-2.8-1.9-4-4.7-3.5-8.1c0.1-0.9-0.1-1.4-0.8-1.7c-0.2-0.1-0.5-0.2-0.7-0.4
		c-1.8-1.4-3.3-1.8-5.5-0.3c-3,2.1-7.4,1-9.9-1.7c-2.5-2.8-2.9-6.9-0.9-10.1c2-3.1,5.8-4.6,9.4-3.6c3.7,1.1,6.3,4.3,6,8.2
		c-0.1,1.8,0.3,2.6,1.8,3.5c1.7,0.9,2.9,1.5,4.9,0.1c2.7-1.9,5.9-1.6,8.6,0.3c2.9,1.9,4.1,4.8,3.6,8.2c-0.1,1,0.1,1.5,0.9,1.8
		c0.2,0.1,0.4,0.2,0.5,0.3c1.5,1.2,2.8,1.4,4.7,0.1c2.6-1.8,5.6-1.6,8.4,0.1C62.1,36.8,63.4,39.4,63.2,42.9z"/>
	<path class="st3" d="M55.2,71.5c-4.7,0-8.5-3.7-8.5-8.3c0-4.6,3.7-8.4,8.4-8.4c4.7,0,8.4,3.7,8.5,8.4
		C63.6,67.8,59.9,71.5,55.2,71.5z"/>
</g>
<image style="overflow:visible;" width="135" height="37" xlink:href="CB7A4B97.jpg"  transform="matrix(1 0 0 1 176 64)">
</image>
</svg>
