<?xml version="1.0" encoding="utf-8"?>
<!-- Generator: Adobe Illustrator 23.0.1, SVG Export Plug-In . SVG Version: 6.00 Build 0)  -->
<svg version="1.1" id="Camada_1" xmlns="http://www.w3.org/2000/svg" xmlns:xlink="http://www.w3.org/1999/xlink" x="0px" y="0px"
	 viewBox="0 0 48 64" style="enable-background:new 0 0 48 64;" xml:space="preserve">
<style type="text/css">
	.st0{fill:#AE86FF;}
</style>
<g>
	<g>
		<path class="st0" d="M47.6,0L33.2,6l-1.9-2.2l-7.5-1.3l-7.5,1.3L14.5,6L0.1,0l4.8,11.8L0.1,25l3.8,11.3l3.8,10l3.8,5l6.3,8.8
			l6.3,3.8l6.3-3.8l6.3-8.8l3.8-5l3.8-10L47.6,25l-4.8-13.2L47.6,0z M38.9,32.5l-2.5,6.3l-2.5,3.8l-3.8,11.3l-3.8,3.8h-5l-3.8-3.8
			l-3.8-11.3l-2.5-3.8l-2.5-6.3V20l8.8-1.3l6.3,3.8l6.3-3.8l8.8,1.3V32.5z"/>
		<path class="st0" d="M28.9,32.5l2.5,1.3v-2.1l1.2-0.4h1.3l2.5-3.8V25l-6.3,2.5L28.9,32.5z M23.8,36.3L21.3,35l-2.5,12.5l1.3,3.8
			l1.2,2.5h1.3l1.2,1.2l1.3-1.2h1.3l1.2-2.5l1.3-3.8L26.4,35L23.8,36.3z M17.6,27.5L11.3,25v2.5l2.5,3.8h1.3l1.2,0.4v2.1l2.5-1.3
			L17.6,27.5z"/>
	</g>
</g>
<image style="overflow:visible;" width="349" height="144" xlink:href="7C8B7DB9.jpg"  transform="matrix(1 0 0 1 98.7571 -39)">
</image>
</svg>
