<?xml version="1.0" encoding="utf-8"?>
<!-- Generator: Adobe Illustrator 23.0.1, SVG Export Plug-In . SVG Version: 6.00 Build 0)  -->
<svg version="1.1" id="Camada_1" xmlns="http://www.w3.org/2000/svg" xmlns:xlink="http://www.w3.org/1999/xlink" x="0px" y="0px"
	 viewBox="0 0 128 128" style="enable-background:new 0 0 128 128;" xml:space="preserve">
<style type="text/css">
	.st0{opacity:0.1;fill:#992E2E;enable-background:new    ;}
	.st1{fill:#FF9D33;}
	.st2{fill:#FFC599;}
	.st3{fill:#FFF3EE;}
	.st4{fill:#FFAB66;}
	.st5{fill:#FF4D4D;}
	.st6{fill:#FF2C2C;}
	.st7{fill:#FF8B00;}
	.st8{fill:#992E2E;}
	.st9{fill:#FF6C6C;}
	.st10{fill:#6C6CFF;}
	.st11{fill:#4D4DFF;}
	.st12{fill:#FF7EB8;}
	.st13{fill:#FF5BA8;}
	.st14{fill:#02FFB3;}
	.st15{fill:#FFFFFF;}
	.st16{fill:#9FB0FE;}
	.st17{fill:#6583FE;}
	.st18{fill:#01ECA5;}
	.st19{fill:#2C27FF;}
	.st20{fill:#EBEBFF;}
	.st21{fill:#FFB3B3;}
	.st22{fill:#B3B3FF;}
	.st23{fill:#FF7300;}
	.st24{fill:#9494FF;}
	.st25{fill:#D9D9FF;}
	.st26{fill:#AFABC6;}
	.st27{fill:#8E8CA8;}
	.st28{fill:#F5F4F9;}
	.st29{fill:#FFBE92;}
	.st30{fill:#DDD9E4;}
	.st31{fill:#C182F9;}
	.st32{fill:#CECAE0;}
	.st33{fill:#FFA052;}
	.st34{fill:#FDD250;}
	.st35{fill:#FFE783;}
	.st36{fill:#FF8736;}
</style>
<g>
	<path class="st0" d="M85.6,126.5v-23.2c0-2,1-3.8,2.6-4.8c12-7.9,22.7-20.3,23.9-35c3.2-40.7-36.3-62.7-68.4-40.6
		c0,0-23.7,16.5-24.2,52.7c0,0.8,0.6,1.5,1.4,1.5h9.1c0,0-2,27,2.7,29.5c2.1,1.1,7.6,1.6,13.3,1.2v18.8c0,0.9,0.7,1.5,1.5,1.5h36.5
		C84.9,128,85.6,127.3,85.6,126.5L85.6,126.5z"/>
	<path class="st4" d="M85.6,119.7V94.9c0-2,1-3.8,2.6-4.8c12-7.9,22.7-20.3,23.9-35c3.2-40.7-36.3-62.7-68.4-40.6
		c0,0-23.7,16.5-24.2,52.7c0,0.8,0.6,1.5,1.4,1.5h9.1c0,0-2,27,2.7,29.5c2.1,1.1,7.6,1.6,13.3,1.2v20.3L85.6,119.7L85.6,119.7z"/>
	<path class="st2" d="M111.8,44.8H23c4.1-12.5,10.7-20.9,15.4-25.7h62.3C106.7,25.7,110.7,34.5,111.8,44.8z"/>
	<path class="st23" d="M69.1,46.4H55.8c-0.7,0-1.4-0.5-1.6-1.2c-0.2-1,0.6-1.9,1.5-1.9l13.2,0c0.7,0,1.4,0.5,1.6,1.2
		C70.8,45.5,70,46.4,69.1,46.4z"/>
	<path class="st23" d="M55,58.7H37.2c-0.7,0-1.4-0.5-1.6-1.2c-0.2-1,0.6-1.9,1.5-1.9h16.3V35.9h-8.8c-0.7,0-1.4-0.5-1.6-1.2
		c-0.2-1,0.6-1.9,1.5-1.9H55c0.9,0,1.5,0.7,1.5,1.5v22.9C56.5,58,55.9,58.7,55,58.7z"/>
	<circle class="st10" cx="43.7" cy="34.3" r="3.9"/>
	<circle class="st10" cx="35.9" cy="57.1" r="3.9"/>
	<circle class="st24" cx="35.9" cy="57.1" r="1.9"/>
	<path class="st23" d="M61.2,77.9H30.5c-0.7,0-1.4-0.5-1.6-1.2c-0.2-1,0.6-1.9,1.5-1.9h30.7c0.7,0,1.4,0.5,1.6,1.2
		C62.9,77,62.2,77.9,61.2,77.9z"/>
	<circle class="st10" cx="64.4" cy="76.3" r="3.9"/>
	<circle class="st24" cx="64.4" cy="76.3" r="1.9"/>
	<circle class="st24" cx="43.7" cy="34.3" r="1.9"/>
	<path class="st23" d="M81,28.6V8.4c0-0.7,0.5-1.4,1.2-1.6c1-0.2,1.9,0.6,1.9,1.5v20.3c0,1-0.9,1.7-1.9,1.5C81.5,30,81,29.3,81,28.6
		z"/>
	<path class="st23" d="M70.8,106c-1,0.2-1.9-0.6-1.9-1.5V88.4c0-0.9,0.7-1.5,1.5-1.5H81V59.2c0-0.7,0.5-1.4,1.2-1.6
		c1-0.2,1.9,0.6,1.9,1.5v29.3c0,0.9-0.7,1.5-1.5,1.5H72l0,14.5C72,105.2,71.5,105.9,70.8,106z"/>
	<circle class="st10" cx="70.6" cy="106.4" r="3.9"/>
	<circle class="st24" cx="70.6" cy="106.4" r="1.9"/>
	<path class="st23" d="M54.7,119.1V98.6c0-0.7,0.5-1.4,1.2-1.6c1-0.2,1.9,0.6,1.9,1.5v20.6c0,1-0.9,1.7-1.9,1.5
		C55.2,120.5,54.7,119.8,54.7,119.1z"/>
	<circle class="st10" cx="56.1" cy="94.6" r="3.9"/>
	<circle class="st24" cx="56.1" cy="94.6" r="1.9"/>
	<path class="st23" d="M108.9,68.3H95.2c-0.7,0-1.4-0.5-1.6-1.2c-0.2-1,0.6-1.9,1.5-1.9h13.7c0.7,0,1.4,0.5,1.6,1.2
		C110.6,67.5,109.8,68.3,108.9,68.3z"/>
	<circle class="st10" cx="93.2" cy="66.9" r="3.9"/>
	<circle class="st24" cx="93.2" cy="66.9" r="1.9"/>
	<path class="st8" d="M85.3,101.3c-0.9,0-1.5-0.7-1.5-1.5v-4.9c0-2.5,1.2-4.8,3.3-6.1C106.6,76,109.8,60.9,110.3,55
		c0.7-9-0.7-17.2-4.1-24.5c-3.1-6.7-8-12.4-14-16.4c-12.2-8.2-27.9-8.8-41.9-1.7c-0.9,0.4-1.9,0-2.2-1c-0.2-0.7,0.2-1.5,0.8-1.8
		c15-7.6,31.9-6.9,45,1.9c6.5,4.3,11.7,10.5,15.1,17.7c3.6,7.8,5.1,16.6,4.4,26.1c-1,13.4-10,26.6-24.6,36.1
		c-1.2,0.8-1.9,2.1-1.9,3.5v4.9C86.8,100.6,86.2,101.3,85.3,101.3L85.3,101.3z"/>
	<path class="st8" d="M83.8,119.4v-9.1c0-0.7,0.5-1.4,1.2-1.6c1-0.2,1.9,0.6,1.9,1.5v9.2c0,1-0.9,1.7-1.9,1.5
		C84.3,120.9,83.8,120.2,83.8,119.4z"/>
	<path class="st8" d="M46,121.1c-0.9,0-1.5-0.7-1.5-1.5v-18.6c-4.7,0.2-10-0.2-12.4-1.5c-1.7-0.9-3.8-3.7-3.9-17
		c-0.1-5,0.2-9.8,0.3-12.3h-7.4c-0.6,0-1.2-0.2-1.8-0.5c-0.8-0.6-1.3-1.5-1.3-2.5c0.4-29.1,15.5-45.7,22-51.5
		c0.7-0.6,1.9-0.5,2.4,0.4c0.4,0.6,0.2,1.5-0.4,2c-6.2,5.6-20.6,21.4-21,49.1h9c0.4,0,0.8,0.2,1.1,0.5c0.3,0.3,0.4,0.7,0.4,1.2
		c0,0.1-0.5,6.8-0.4,13.7c0.1,13,2.2,14.2,2.3,14.3c1.6,0.8,6.5,1.5,12.4,1c0.4,0,0.8,0.1,1.2,0.4c0.3,0.3,0.5,0.7,0.5,1.1v20.3
		C47.6,120.4,46.9,121.1,46,121.1L46,121.1z"/>
	<circle class="st24" cx="82.4" cy="43.8" r="15.2"/>
	<circle class="st25" cx="82.4" cy="43.8" r="7.6"/>
	<circle class="st9" cx="78.3" cy="51.5" r="3.5"/>
	<path class="st9" d="M8.5,67.7c-2.2,0-4-1.8-4-4s1.8-4,4-4s4,1.8,4,4S10.7,67.7,8.5,67.7z M8.5,62.8c-0.5,0-0.9,0.4-0.9,0.9
		c0,0.5,0.4,0.9,0.9,0.9s0.9-0.4,0.9-0.9C9.4,63.2,9,62.8,8.5,62.8L8.5,62.8z"/>
	<path class="st9" d="M119.5,110.8c-2.2,0-4-1.8-4-4c0-2.2,1.8-4,4-4c2.2,0,4,1.8,4,4C123.5,108.9,121.7,110.8,119.5,110.8z
		 M119.5,105.8c-0.5,0-0.9,0.4-0.9,0.9c0,0.5,0.4,0.9,0.9,0.9c0.5,0,0.9-0.4,0.9-0.9C120.4,106.2,120,105.8,119.5,105.8z"/>
	<path class="st10" d="M102.8,10.1c-0.4,0-0.8-0.2-1.1-0.5l-3.5-3.5c-0.6-0.6-0.6-1.6,0-2.2l3.5-3.5c0.3-0.3,0.7-0.5,1.1-0.5
		c0.4,0,0.8,0.2,1.1,0.5l3.5,3.5c0.3,0.3,0.5,0.7,0.5,1.1c0,0.4-0.2,0.8-0.5,1.1l-3.5,3.5C103.6,9.9,103.2,10.1,102.8,10.1z
		 M101.5,5l1.3,1.3l1.3-1.3l-1.3-1.3L101.5,5z"/>
	<path class="st10" d="M11,87.2c-0.4,0-0.8-0.2-1.1-0.5l-3.5-3.5c-0.3-0.3-0.5-0.7-0.5-1.1s0.2-0.8,0.5-1.1l3.5-3.5
		c0.6-0.6,1.6-0.6,2.2,0l3.5,3.5c0.3,0.3,0.5,0.7,0.5,1.1s-0.2,0.8-0.5,1.1l-3.5,3.5C11.8,87,11.4,87.2,11,87.2z M9.7,82.1l1.3,1.3
		l1.3-1.3L11,80.8L9.7,82.1z"/>
	<path class="st1" d="M102,104.5c-0.4,0-0.8-0.2-1.1-0.5l-3.5-3.5c-0.3-0.3-0.5-0.7-0.5-1.1s0.2-0.8,0.5-1.1l3.5-3.5
		c0.6-0.6,1.6-0.6,2.2,0l3.5,3.5c0.3,0.3,0.5,0.7,0.5,1.1s-0.2,0.8-0.5,1.1l-3.5,3.5C102.8,104.3,102.4,104.5,102,104.5z
		 M100.7,99.4l1.3,1.3l1.3-1.3l-1.3-1.3L100.7,99.4z"/>
</g>
</svg>
