<?xml version="1.0" encoding="utf-8"?>
<!-- Generator: Adobe Illustrator 24.3.0, SVG Export Plug-In . SVG Version: 6.00 Build 0)  -->
<svg version="1.1" id="Camada_1" xmlns="http://www.w3.org/2000/svg" xmlns:xlink="http://www.w3.org/1999/xlink" x="0px" y="0px"
	 viewBox="0 0 1080 1080" style="enable-background:new 0 0 1080 1080;" xml:space="preserve">
<style type="text/css">
	.st0{fill:#FFFFFF;}
</style>
<g>
	<g>
		<path class="st0" d="M1029.66,874.05c-142.87,0-267.69-96.54-303.62-234.82L573.74,52.96c-0.35-0.76-0.81-1.42-1.2-2.13
			l-10.19-22.29C550.54,2.71,515.98-7.79,489.08,6.27L263.84,124.03c-6.65,3.47-3.27,12.61,4.38,11.85l196.91-19.69
			c5.67-0.57,9.94,4.52,7.76,9.24L350.73,633.67c-7.33,30.5-19,59.05-34.22,85.07c5.76,2.91,11.55,5.77,17.44,8.52
			c132.01,61.92,273.13,75.99,400.93,49.16c-121.8,72.25-283.62,82.52-430.41,13.67c-10.22-4.79-20.16-9.92-29.87-15.29
			c-57.82,61.66-139.76,99.24-228.88,99.24h0C45.72,987.79,267.02,1080,540,1080s494.28-92.21,494.28-205.95H1029.66z"/>
	</g>
	<g>
		<path class="st0" d="M202.04,228.69L183.2,289.3c-1.43,4.6-7.52,5.56-10.3,1.63l-36.65-51.83c-1.1-1.56-2.91-2.48-4.82-2.46
			l-63.47,0.81c-4.82,0.06-7.61-5.43-4.73-9.29l37.96-50.87c1.14-1.53,1.46-3.53,0.85-5.34l-20.38-60.11
			c-1.55-4.56,2.81-8.92,7.37-7.37l60.11,20.38c1.81,0.61,3.81,0.3,5.34-0.85l50.87-37.96c3.86-2.88,9.35-0.08,9.29,4.73
			l-0.81,63.47c-0.02,1.91,0.89,3.72,2.46,4.82l51.83,36.65c3.93,2.78,2.97,8.87-1.63,10.3l-60.61,18.84
			C204.04,225.43,202.61,226.86,202.04,228.69z"/>
	</g>
</g>
</svg>
