<?xml version="1.0" encoding="utf-8"?>
<!-- Generator: Adobe Illustrator 24.3.0, SVG Export Plug-In . SVG Version: 6.00 Build 0)  -->
<svg version="1.1" id="Camada_1" xmlns="http://www.w3.org/2000/svg" xmlns:xlink="http://www.w3.org/1999/xlink" x="0px" y="0px"
	 viewBox="0 0 1080 1080" style="enable-background:new 0 0 1080 1080;" xml:space="preserve">
<style type="text/css">
	.st0{fill:#FFFFFF;}
</style>
<g>
	<g>
		<path class="st0" d="M829.8,0H250.2c-39.79,0-72.04,32.25-72.04,72.04v796.7c0,39.79,32.25,72.04,72.04,72.04h361.07h1.1V817.04
			c0-21.99,14.58-39.81,32.57-39.81h151.97c17.99,0,32.57,17.83,32.57,39.81v123.74h0.33c39.79,0,72.04-32.25,72.04-72.04V72.04
			C901.84,32.25,869.59,0,829.8,0z M516.17,176.57l-57.87,56.41c-1.74,1.7-2.54,4.15-2.13,6.55l13.66,79.65
			c1.04,6.05-5.31,10.66-10.74,7.8l-71.53-37.61c-2.16-1.13-4.73-1.13-6.89,0l-71.53,37.61c-5.43,2.85-11.78-1.76-10.74-7.8
			l13.66-79.65c0.41-2.4-0.38-4.85-2.13-6.55l-57.87-56.41c-4.39-4.28-1.97-11.74,4.1-12.62l79.97-11.62
			c2.41-0.35,4.49-1.86,5.57-4.05l35.76-72.47c2.71-5.5,10.56-5.5,13.27,0l35.77,72.47c1.08,2.18,3.16,3.7,5.57,4.05l79.97,11.62
			C518.14,164.83,520.56,172.29,516.17,176.57z M721,255.12c-28.17,0-51.01-9.52-51.01-21.25c9.2,0,17.65-3.88,23.62-10.24
			c1,0.55,2.03,1.08,3.08,1.58c15.15,7.1,31.85,6.04,44.42-1.41c-13.19,2.77-27.75,1.32-41.37-5.07c-0.61-0.28-1.21-0.58-1.8-0.88
			c1.57-2.69,2.77-5.63,3.53-8.78l12.61-52.45c0.22-0.49-0.22-1.01-0.8-0.95l-20.32,2.03c-0.79,0.08-1.14-0.86-0.45-1.22
			l23.24-12.15c2.78-1.45,6.34-0.37,7.56,2.3l1.05,2.3c0.04,0.07,0.09,0.14,0.12,0.22l15.72,60.5
			c3.71,14.27,16.59,24.23,31.33,24.23h0.48C772.01,245.61,749.17,255.12,721,255.12z"/>
	</g>
	<g>
		<path class="st0" d="M678.82,186.48l-1.85,5.94c-0.14,0.45-0.74,0.55-1.01,0.16l-3.59-5.08c-0.11-0.15-0.29-0.24-0.47-0.24
			l-6.22,0.08c-0.47,0.01-0.75-0.53-0.46-0.91l3.72-4.99c0.11-0.15,0.14-0.35,0.08-0.52l-2-5.89c-0.15-0.45,0.28-0.87,0.72-0.72
			l5.89,2c0.18,0.06,0.37,0.03,0.52-0.08l4.99-3.72c0.38-0.28,0.92-0.01,0.91,0.46l-0.08,6.22c0,0.19,0.09,0.36,0.24,0.47l5.08,3.59
			c0.39,0.27,0.29,0.87-0.16,1.01l-5.94,1.85C679.01,186.16,678.87,186.3,678.82,186.48z"/>
	</g>
	<g>
		<path class="st0" d="M806.9,1079.05l-83.89-51.28c-1.35-0.82-2.93-0.82-4.28,0l-83.9,51.29c-4.81,2.94-10.46-1.34-10.46-7.91
			V825.89c0-19.55,12.96-35.4,28.95-35.4h135.1c15.99,0,28.95,15.85,28.95,35.4v245.25C817.38,1077.71,811.71,1081.99,806.9,1079.05
			z"/>
	</g>
</g>
</svg>
