<?xml version="1.0" encoding="utf-8"?>
<!-- Generator: Adobe Illustrator 23.0.1, SVG Export Plug-In . SVG Version: 6.00 Build 0)  -->
<svg version="1.1" id="Camada_1" xmlns="http://www.w3.org/2000/svg" xmlns:xlink="http://www.w3.org/1999/xlink" x="0px" y="0px"
	 viewBox="0 0 128 128" style="enable-background:new 0 0 128 128;" xml:space="preserve">
<style type="text/css">
	.st0{opacity:0.1;fill:#992E2E;enable-background:new    ;}
	.st1{fill:#FF9D33;}
	.st2{fill:#FFC599;}
	.st3{fill:#FFF3EE;}
	.st4{fill:#FFAB66;}
	.st5{fill:#FF4D4D;}
	.st6{fill:#FF2C2C;}
	.st7{fill:#FF8B00;}
	.st8{fill:#992E2E;}
	.st9{fill:#FF6C6C;}
	.st10{fill:#6C6CFF;}
	.st11{fill:#4D4DFF;}
	.st12{fill:#FF7EB8;}
	.st13{fill:#FF5BA8;}
	.st14{fill:#02FFB3;}
	.st15{fill:#FFFFFF;}
	.st16{fill:#9FB0FE;}
	.st17{fill:#6583FE;}
	.st18{fill:#01ECA5;}
	.st19{fill:#2C27FF;}
	.st20{fill:#EBEBFF;}
	.st21{fill:#FFB3B3;}
	.st22{fill:#B3B3FF;}
	.st23{fill:#FF7300;}
	.st24{fill:#9494FF;}
	.st25{fill:#D9D9FF;}
	.st26{fill:#AFABC6;}
	.st27{fill:#8E8CA8;}
	.st28{fill:#F5F4F9;}
	.st29{fill:#FFBE92;}
	.st30{fill:#DDD9E4;}
	.st31{fill:#C182F9;}
	.st32{fill:#CECAE0;}
	.st33{fill:#FFA052;}
	.st34{fill:#FDD250;}
	.st35{fill:#FFE783;}
	.st36{fill:#FF8736;}
</style>
<g>
	<path class="st0" d="M126,31.9c0-3.8-3.1-6.9-6.9-6.9H17.6V14c0-1.9-1.5-3.4-3.4-3.4H8.8C5,10.6,2,13.7,2,17.5V102
		c0,3.8,3.1,6.9,6.9,6.9h82.4v17.5c0,1.4,1.5,2.2,2.6,1.4l7-5.1l7,5.1c1.1,0.8,2.6,0,2.6-1.4v-2.7c0.4,0.2,0.9,0.3,1.4,0.3h7.4
		c3.1,0,5.7-2.1,6.6-4.9c0.2-0.6,0.3-1.3,0.3-1.9L126,31.9z"/>
	<path class="st1" d="M119.2,116.4H112c-1.9,0-3.4-1.5-3.4-3.4V98h10.6c3.8,0,6.8-3.1,6.8-6.9v18.3c0,0.7-0.1,1.3-0.3,2
		C124.9,114.3,122.3,116.4,119.2,116.4L119.2,116.4z"/>
	<path class="st2" d="M126,108.2c0-3.8-3.1-6.8-6.9-6.8H8.8C5,101.3,2,98.3,2,94.5v-77h117.2c3.8,0,6.9,3.1,6.9,6.8V108.2z"/>
	<path class="st3" d="M118.5,77.6V41c0-0.8-0.6-1.4-1.4-1.5c-7.1-0.7-12.7-6.3-13.3-13.4c-0.1-0.8-0.7-1.4-1.5-1.4H25.7
		c-0.8,0-1.4,0.6-1.5,1.4c-0.7,7.1-6.3,12.7-13.3,13.4c-0.8,0.1-1.4,0.7-1.4,1.5v36.6c0,0.8,0.6,1.4,1.4,1.5
		c7.1,0.7,12.7,6.3,13.3,13.4c0.1,0.8,0.7,1.4,1.5,1.4h76.6c0.8,0,1.4-0.6,1.5-1.4c0.7-7.1,6.3-12.7,13.3-13.4
		C117.9,79,118.5,78.3,118.5,77.6z"/>
	<path class="st4" d="M92.8,57.2H54.5c-0.7,0-1.4-0.5-1.5-1.2c-0.2-1,0.5-1.8,1.5-1.8l38.3,0c0.7,0,1.4,0.5,1.5,1.2
		C94.5,56.3,93.7,57.2,92.8,57.2z"/>
	<path class="st4" d="M46.8,57.2H33.1c-0.7,0-1.4-0.5-1.5-1.2c-0.2-1,0.5-1.8,1.5-1.8l13.7,0c0.7,0,1.4,0.5,1.5,1.2
		C48.5,56.3,47.8,57.2,46.8,57.2z"/>
	<path class="st4" d="M92.8,63.8l-10.7,0c-0.7,0-1.4-0.5-1.5-1.2c-0.2-1,0.5-1.8,1.5-1.8h10.7c0.7,0,1.4,0.5,1.5,1.2
		C94.5,62.9,93.7,63.8,92.8,63.8L92.8,63.8z"/>
	<path class="st4" d="M74.4,63.8l-41.3,0c-0.7,0-1.4-0.5-1.5-1.2c-0.2-1,0.5-1.8,1.5-1.8h41.3c0.7,0,1.4,0.5,1.5,1.2
		C76.1,62.9,75.4,63.8,74.4,63.8z"/>
	<path class="st1" d="M2,93.5V9.6C2,5.9,5,2.8,8.8,2.8h5.3c1.9,0,3.4,1.5,3.4,3.4v77c0,1.9-1.5,3.4-3.4,3.4H8.8
		C5,86.6,2,89.7,2,93.5z"/>
	<path class="st5" d="M110.4,92.9v25.9c0,1.4-1.5,2.2-2.6,1.4l-7-5.1l-7,5.1c-1.1,0.8-2.6,0-2.6-1.4V92.9H110.4z"/>
	<path class="st6" d="M110.4,92.9v9.4c-2.6,2.2-6,3.4-9.6,3.4s-7-1.3-9.6-3.4v-9.4H110.4z"/>
	<circle class="st7" cx="100.9" cy="84.6" r="15.3"/>
	<path class="st8" d="M119.1,16h-100V6.2c0-2.7-2.2-4.9-4.9-4.9H8.7c-4.6,0-8.3,3.8-8.3,8.4l0,84.8c0,4.6,3.7,8.4,8.4,8.4h72.7
		c0.7,0,1.4-0.5,1.5-1.2c0.2-1-0.5-1.8-1.5-1.8H8.8c-3,0-5.4-2.4-5.4-5.4v-1c0-3,2.4-5.4,5.3-5.4h5.4c2.7,0,4.9-2.2,4.9-4.9V19
		h100.1c3,0,5.4,2.4,5.4,5.4v77.4c-1.5-1.2-3.3-1.9-5.4-1.9h-7v-2.7c3.3-3.1,5.5-7.6,5.5-12.6c0-9.3-7.6-16.8-16.8-16.8
		s-16.8,7.6-16.8,16.8s7.6,16.8,16.8,16.8c3,0,8-2.1,8-2.1v19.3c0,0,0,0.1-0.1,0.2c-0.1,0.1-0.2,0-0.2,0l-7-5
		c-0.5-0.4-1.2-0.4-1.7,0l-7,5c0,0-0.1,0.1-0.2,0c-0.1,0-0.1-0.1-0.1-0.2v-12.1c0-0.7-0.5-1.4-1.2-1.5c-1-0.2-1.8,0.5-1.8,1.5v12.1
		c0,1.1,0.5,2.1,1.4,2.7c1.1,0.8,2.6,0.7,3.6,0l6.1-4.4l6.1,4.4c0.6,0.4,1.2,0.6,1.9,0.6c0.6,0,1.1-0.1,1.6-0.4
		c1-0.6,1.5-1.7,1.5-2.8v-0.7h7.3c4.6,0,8.4-3.7,8.4-8.4V24.4C127.5,19.8,123.8,16,119.1,16L119.1,16z M16.1,83.2
		c0,1.1-0.9,1.9-1.9,1.9H8.8c0,0-3.9,0.9-5.6,2.1V49.3c0.3,0,0.3,0,0.3,0V9.6c0-3,2.4-5.4,5.4-5.4h5.3c1.1,0,1.9,0.9,1.9,1.9V83.2z
		 M87.1,84.6c0-7.6,6.2-13.8,13.8-13.8s13.8,6.2,13.8,13.8s-6.2,13.8-13.8,13.8S87.1,92.2,87.1,84.6z M119.2,114.9h-7v-12h7
		c3,0,5.4,2.4,5.4,5.4v1.3C124.5,112.5,122.1,114.9,119.2,114.9z"/>
	<circle class="st1" cx="100.9" cy="84.6" r="10.7"/>
	<path class="st3" d="M101.6,76.7l1.5,4.8h5c0.7,0,1.1,1,0.5,1.4l-4.1,2.9l1.5,4.8c0.2,0.7-0.6,1.3-1.2,0.9l-4.1-2.9l-4.1,2.9
		c-0.6,0.4-1.4-0.2-1.2-0.9l1.5-4.8l-4.1-2.9c-0.6-0.4-0.3-1.4,0.5-1.4h5l1.5-4.8C100.4,76,101.4,76,101.6,76.7L101.6,76.7z"/>
	<path class="st5" d="M95.1,48.2H32.6c-1.7,0-3-1.3-3-3v-7.8c0-1.7,1.3-3,3-3h62.5c1.7,0,3,1.3,3,3v7.8
		C98.1,46.8,96.8,48.2,95.1,48.2z"/>
	<path class="st6" d="M64.5,48.2H32.6c-1.7,0-3-1.3-3-3v-7.8c0-1.7,1.3-3,3-3h31.8c1.7,0,3,1.3,3,3v7.8
		C67.5,46.8,66.1,48.2,64.5,48.2L64.5,48.2z"/>
	<path class="st9" d="M49.1,48.2H32.6c-1.7,0-3-1.3-3-3v-7.8c0-1.7,1.3-3,3-3h16.5c1.7,0,3,1.3,3,3v7.8
		C52.1,46.8,50.8,48.2,49.1,48.2z"/>
	<path class="st10" d="M58,78.2H47.3c-0.7,0-1.4-0.5-1.5-1.2c-0.2-1,0.5-1.8,1.5-1.8H58c0.7,0,1.4,0.5,1.5,1.2
		C59.7,77.4,58.9,78.2,58,78.2z"/>
	<path class="st10" d="M73.3,83.9h-26c-0.7,0-1.4-0.5-1.5-1.2c-0.2-1,0.5-1.8,1.5-1.8h26c0.7,0,1.4,0.5,1.5,1.2
		C75,83.1,74.3,83.9,73.3,83.9z"/>
	<path class="st5" d="M41.5,76.2c0-2.8-2.2-5-5-5c-2.8,0-5,2.2-5,5c0,1.4,0.5,2.6,1.4,3.5c-0.9,0.9-1.4,2.1-1.4,3.5
		c0,0.8,0.7,1.5,1.5,1.5c0.8,0,1.5-0.7,1.5-1.5c0-1.1,0.9-2,2-2c1.1,0,2,0.9,2,2c0,0.8,0.7,1.5,1.5,1.5c0.8,0,1.5-0.7,1.5-1.5
		c0-1.4-0.5-2.6-1.4-3.5C41,78.8,41.5,77.5,41.5,76.2z M36.5,74.2c1.1,0,2,0.9,2,2s-0.9,2-2,2c-1.1,0-2-0.9-2-2S35.4,74.2,36.5,74.2
		z"/>
	<path class="st5" d="M106.4,8.7c-0.3,0-0.6-0.1-0.9-0.3l-1-0.7l-0.9,0.7c-0.4,0.3-0.9,0.4-1.4,0.2c-0.8-0.3-1.2-1.1-1-1.9l0.4-1.1
		l-0.9-0.7c-0.4-0.3-0.7-0.7-0.7-1.2c0-0.9,0.7-1.5,1.5-1.5h1.2l0.4-1.1c0.2-0.5,0.5-0.9,1-1c0.8-0.3,1.7,0.2,1.9,1l0.4,1.1l1.2,0
		c0.5,0,1,0.2,1.3,0.6c0.5,0.7,0.3,1.6-0.3,2.1l-1,0.7l0.4,1.1c0.2,0.5,0.1,1-0.2,1.4C107.4,8.5,106.9,8.7,106.4,8.7L106.4,8.7z"/>
	<path class="st11" d="M80.8,122.9c-0.3,0-0.6-0.1-0.9-0.3l-1-0.7l-0.9,0.7c-0.4,0.3-0.9,0.4-1.4,0.2c-0.8-0.3-1.2-1.1-1-1.9
		l0.4-1.1l-0.9-0.7c-0.4-0.3-0.7-0.7-0.7-1.2c0-0.9,0.7-1.5,1.5-1.5h1.2l0.4-1.1c0.2-0.5,0.5-0.9,1-1c0.8-0.3,1.7,0.2,1.9,1l0.4,1.1
		h1.2c0.5,0,1,0.2,1.3,0.6c0.5,0.7,0.3,1.6-0.3,2.1l-1,0.7l0.4,1.1c0.2,0.5,0.1,1-0.2,1.4C81.7,122.7,81.2,122.9,80.8,122.9
		L80.8,122.9z"/>
	<path class="st1" d="M93.8,11.3c-0.4,0-0.8-0.1-1.1-0.4l-1.5-1.5l-1.5,1.5c-0.6,0.6-1.5,0.6-2.1,0c-0.6-0.6-0.6-1.5,0-2.1l2.6-2.6
		c0.6-0.6,1.5-0.6,2.1,0l2.6,2.6c0.6,0.6,0.6,1.5,0,2.1C94.6,11.2,94.2,11.3,93.8,11.3z"/>
	<path class="st1" d="M37.1,119c-0.4,0-0.8-0.1-1.1-0.4l-1.5-1.5l-1.5,1.5c-0.6,0.6-1.5,0.6-2.1,0c-0.6-0.6-0.6-1.5,0-2.1l2.6-2.6
		c0.6-0.6,1.5-0.6,2.1,0l2.6,2.6c0.6,0.6,0.6,1.5,0,2.1C37.9,118.9,37.5,119,37.1,119z"/>
	<path class="st5" d="M71.1,113.1c-0.4,0-0.8-0.1-1.1-0.4l-1.5-1.5l-1.5,1.5c-0.6,0.6-1.5,0.6-2.1,0c-0.6-0.6-0.6-1.5,0-2.1l2.6-2.6
		c0.6-0.6,1.5-0.6,2.1,0l2.6,2.6c0.6,0.6,0.6,1.5,0,2.1C71.9,112.9,71.5,113.1,71.1,113.1z"/>
</g>
</svg>
