<?xml version="1.0" encoding="utf-8"?>
<!-- Generator: Adobe Illustrator 24.3.0, SVG Export Plug-In . SVG Version: 6.00 Build 0)  -->
<svg version="1.1" id="Camada_1" xmlns="http://www.w3.org/2000/svg" xmlns:xlink="http://www.w3.org/1999/xlink" x="0px" y="0px"
	 viewBox="0 0 1080 1080" style="enable-background:new 0 0 1080 1080;" xml:space="preserve">
<style type="text/css">
	.st0{fill:#FFFFFF;}
</style>
<g>
	<g>
		<path class="st0" d="M834.23,831c-62.2-107.74-131.02-184.46-153.7-171.37c-59.09,34.12-96.88,90.97-108.69,153.13
			c-68.38-34.86-131-91.89-176.91-166.92c-42.03-77.28-60.1-160.02-56.1-236.67c59.74,20.85,127.86,16.56,186.96-17.56
			c22.68-13.1-9.36-111.05-71.56-218.79C392.03,65.08,323.22-11.64,300.54,1.46c-53.64,30.97-89.71,80.67-104.75,136.06l-0.96-1.7
			C142.13,307.93,163,517.1,266.55,707.37l-0.24,0.14c1.82,3.15,3.66,6.29,5.51,9.41c1.78,3.17,3.57,6.33,5.39,9.48l0.24-0.14
			c113.01,184.81,283.72,307.47,459.11,347.89l-0.99-1.68c55.49,14.67,116.57,8.28,170.21-22.69
			C928.47,1036.69,896.44,938.74,834.23,831z M303.99,648.13l-2.83,2.67c-0.09,0.08-0.13,0.2-0.11,0.31l0.59,3.85
			c0.04,0.29-0.26,0.51-0.52,0.37l-3.41-1.87c-0.1-0.06-0.23-0.06-0.33-0.01l-3.48,1.75c-0.26,0.13-0.57-0.09-0.51-0.38l0.73-3.82
			c0.02-0.12-0.01-0.23-0.1-0.32l-2.74-2.77c-0.21-0.21-0.08-0.57,0.21-0.6l3.86-0.49c0.12-0.01,0.22-0.09,0.27-0.19l1.78-3.46
			c0.14-0.26,0.51-0.26,0.64,0.01l1.66,3.52c0.05,0.11,0.15,0.18,0.26,0.2l3.84,0.63C304.1,647.57,304.21,647.93,303.99,648.13z
			 M342.56,688.95c-15.05,7.34-29.72,8.21-32.78,1.94c4.91-2.4,8.42-6.67,9.95-11.62c0.68,0.04,1.37,0.05,2.06,0.04
			c9.94-0.15,18.58-5.07,23.36-12.32c-6.32,4.91-14.48,7.93-23.42,8.07c-0.4,0.01-0.79,0-1.19,0c0.14-1.84,0.02-3.73-0.4-5.61
			l-6.93-31.3c-0.01-0.32-0.38-0.48-0.68-0.3l-10.32,6.38c-0.4,0.25-0.83-0.17-0.56-0.54l9.25-12.55c1.1-1.5,3.29-1.85,4.64-0.74
			l1.16,0.95c0.04,0.03,0.08,0.05,0.12,0.09l24.16,28.22c5.7,6.66,15.17,8.62,23.05,4.78l0.25-0.12
			C367.33,670.58,357.61,681.61,342.56,688.95z"/>
	</g>
</g>
</svg>
