<?xml version="1.0" encoding="utf-8"?>
<!-- Generator: Adobe Illustrator 23.0.1, SVG Export Plug-In . SVG Version: 6.00 Build 0)  -->
<svg version="1.1" id="Camada_1" xmlns="http://www.w3.org/2000/svg" xmlns:xlink="http://www.w3.org/1999/xlink" x="0px" y="0px"
	 viewBox="0 0 128 128" style="enable-background:new 0 0 128 128;" xml:space="preserve">
<style type="text/css">
	.st0{opacity:0.1;fill:#992E2E;enable-background:new    ;}
	.st1{fill:#FF9D33;}
	.st2{fill:#FFC599;}
	.st3{fill:#FFF3EE;}
	.st4{fill:#FFAB66;}
	.st5{fill:#FF4D4D;}
	.st6{fill:#FF2C2C;}
	.st7{fill:#FF8B00;}
	.st8{fill:#992E2E;}
	.st9{fill:#FF6C6C;}
	.st10{fill:#6C6CFF;}
	.st11{fill:#4D4DFF;}
	.st12{fill:#FF7EB8;}
	.st13{fill:#FF5BA8;}
	.st14{fill:#02FFB3;}
	.st15{fill:#FFFFFF;}
	.st16{fill:#9FB0FE;}
	.st17{fill:#6583FE;}
	.st18{fill:#01ECA5;}
	.st19{fill:#2C27FF;}
	.st20{fill:#EBEBFF;}
	.st21{fill:#FFB3B3;}
	.st22{fill:#B3B3FF;}
	.st23{fill:#FF7300;}
	.st24{fill:#9494FF;}
	.st25{fill:#D9D9FF;}
	.st26{fill:#AFABC6;}
	.st27{fill:#8E8CA8;}
	.st28{fill:#F5F4F9;}
	.st29{fill:#FFBE92;}
	.st30{fill:#DDD9E4;}
	.st31{fill:#C182F9;}
	.st32{fill:#CECAE0;}
	.st33{fill:#FFA052;}
	.st34{fill:#FDD250;}
	.st35{fill:#FFE783;}
	.st36{fill:#FF8736;}
</style>
<g>
	<path class="st0" d="M126.5,25.2c0-8.1-6.6-14.6-14.7-14.6s-14.7,6.6-14.7,14.6c0,0.7,0.1,1.3,0.1,2C88,20.5,77.1,16.9,65.6,16.9
		c0,0-0.1,0-0.1,0C50.8,17,37,22.7,26.7,33c-10.3,10.3-16,24.1-16,38.7c0,9.8,2.6,19,7.1,27c-3.7,2.9-6,7.5-5.6,12.7
		c0.6,7.1,6.3,12.8,13.4,13.4c5.2,0.4,9.9-1.8,12.8-5.5c8,4.5,17.2,7.1,27,7.2c2.7,0,5.2-2.2,5.4-4.9c0.3-3.2-2.2-5.8-5.3-5.8
		c-8.9,0-17.1-2.6-24-7.1c-0.7-6.8-6.2-12.3-13-13c-4.5-6.9-7.1-15.1-7.1-23.9c0-24.2,19.8-44,44.1-44c0,0,0.1,0,0.1,0
		c11.6,0,22.6,4.6,31,12.9c8.5,8.5,13.2,19.7,13.2,31.5v7.8c0,4.5-3.2,8.5-7.6,9.2c-5.8,1-10.8-3.5-10.8-9V51.9
		c0-1.4-0.6-2.8-1.6-3.8C83.4,41.8,75,38.4,66,38.5c-9,0.1-17.4,3.6-23.6,10c-6,6.2-9.4,14.4-9.4,23.1s3.3,16.9,9.4,23.1
		c6.3,6.4,14.6,10,23.6,10c0.1,0,0.2,0,0.2,0c8.4,0,16.4-3.1,22.5-8.8c3.9,2.9,8.9,4.3,14.2,3.7c10-1.2,17.4-9.9,17.4-19.9V72
		c0-11.7-3.7-23-10.6-32.3c0.6,0.1,1.3,0.1,2,0.1C119.9,39.8,126.5,33.3,126.5,25.2L126.5,25.2z M66.1,94.2c-6.1,0-11.7-2.5-16-6.8
		c-8.4-8.6-8.4-22.7,0-31.3c4.2-4.4,9.9-6.8,16-6.8c0.1,0,0.1,0,0.2,0c5.3,0,10.3,1.8,14.3,5.2V80c0,2.7,0.5,5.2,1.5,7.6
		C77.9,91.9,72.2,94.2,66.1,94.2z"/>
	<path class="st12" d="M65.6,118.9c-30.3,0-54.9-24.5-54.9-54.7c0-14.6,5.7-28.3,16-38.7C37,15.2,50.8,9.5,65.5,9.5c0,0,0.1,0,0.1,0
		c14.4,0,28.1,5.7,38.5,16c10.5,10.5,16.3,24.4,16.3,39.1v7.7c0,10.1-7.4,18.7-17.4,19.9c-5.3,0.6-10.3-0.8-14.2-3.7
		c-6.2,5.7-14.1,8.8-22.5,8.8c-0.1,0-0.2,0-0.2,0c-9-0.1-17.4-3.6-23.6-10c-6-6.2-9.4-14.4-9.4-23.1s3.3-16.9,9.4-23.1
		c6.3-6.4,14.6-10,23.6-10c9-0.1,17.4,3.4,23.7,9.7c1,1,1.6,2.4,1.6,3.8v27.9c0,4.5,3.2,8.5,7.6,9.2c5.8,1,10.8-3.5,10.8-9v-8
		c0-11.9-4.7-23.1-13.2-31.5c-8.4-8.3-19.4-12.9-31-12.9c0,0-0.1,0-0.1,0c-24.3,0-44.1,19.8-44.1,44c0,24.2,19.8,44,44.1,44
		c2.7,0,5,1.9,5.4,4.5C71.3,116.1,68.8,118.9,65.6,118.9L65.6,118.9z M66.3,41.9c-0.1,0-0.1,0-0.2,0c-6.1,0-11.7,2.5-16,6.8
		c-8.4,8.6-8.4,22.7,0,31.3c4.2,4.4,9.9,6.8,16,6.8c6,0,11.7-2.3,16-6.5c-1-2.3-1.5-4.9-1.5-7.6V47C76.6,43.7,71.6,41.9,66.3,41.9
		L66.3,41.9z"/>
	<path class="st13" d="M104.2,25.7c-2-1.9-4-3.7-6.2-5.3c-0.5,1.4-0.7,3-0.7,4.5c0,8.1,6.6,14.7,14.7,14.7c0.8,0,1.6-0.1,2.3-0.2
		C111.7,34.4,108.3,29.8,104.2,25.7z"/>
	<circle class="st14" cx="111.9" cy="17.9" r="14.6"/>
	<path class="st15" d="M117,16.1c0-2.8-2.3-5.1-5.1-5.1c-2.8,0-5.1,2.3-5.1,5.1c0,1.4,0.6,2.6,1.5,3.5c-0.9,0.9-1.5,2.2-1.5,3.5
		c0,0.8,0.7,1.5,1.5,1.5s1.5-0.7,1.5-1.5c0-1.1,0.9-2,2-2s2,0.9,2,2c0,0.8,0.7,1.5,1.5,1.5s1.5-0.7,1.5-1.5c0-1.4-0.6-2.6-1.5-3.5
		C116.4,18.8,117,17.5,117,16.1L117,16.1z M111.9,14.1c1.1,0,2,0.9,2,2c0,1.1-0.9,2-2,2s-2-0.9-2-2C109.9,15,110.8,14.1,111.9,14.1z
		"/>
	<circle class="st16" cx="27.3" cy="102.6" r="14.6"/>
	<path class="st15" d="M32.3,100.8c0-2.8-2.3-5.1-5.1-5.1s-5.1,2.3-5.1,5.1c0,1.4,0.6,2.6,1.5,3.5c-0.9,0.9-1.5,2.2-1.5,3.5
		c0,0.8,0.7,1.5,1.5,1.5s1.5-0.7,1.5-1.5c0-1.1,0.9-2,2-2c1.1,0,2,0.9,2,2c0,0.8,0.7,1.5,1.5,1.5s1.5-0.7,1.5-1.5
		c0-1.4-0.6-2.6-1.5-3.5C31.8,103.4,32.3,102.2,32.3,100.8L32.3,100.8z M27.3,98.8c1.1,0,2,0.9,2,2c0,1.1-0.9,2-2,2
		c-1.1,0-2-0.9-2-2C25.3,99.7,26.2,98.8,27.3,98.8z"/>
	<path class="st12" d="M88.5,111c-0.8,0-1.5-0.7-1.5-1.5c0-1-0.8-1.9-1.9-1.9c-0.8,0-1.5-0.7-1.5-1.5c0-0.8,0.7-1.5,1.5-1.5
		c1,0,1.9-0.8,1.9-1.9c0-0.8,0.7-1.5,1.5-1.5s1.5,0.7,1.5,1.5c0,1,0.8,1.9,1.9,1.9c0.8,0,1.5,0.7,1.5,1.5c0,0.8-0.7,1.5-1.5,1.5
		c-1,0-1.9,0.8-1.9,1.9C90,110.3,89.3,111,88.5,111z"/>
	<path class="st17" d="M102.4,122.3c-0.8,0-1.5-0.7-1.5-1.5c0-1-0.8-1.9-1.9-1.9c-0.8,0-1.5-0.7-1.5-1.5c0-0.8,0.7-1.5,1.5-1.5
		c1,0,1.9-0.8,1.9-1.9c0-0.8,0.7-1.5,1.5-1.5s1.5,0.7,1.5,1.5c0,1,0.8,1.9,1.9,1.9c0.8,0,1.5,0.7,1.5,1.5c0,0.8-0.7,1.5-1.5,1.5
		c-1,0-1.9,0.8-1.9,1.9C103.9,121.6,103.2,122.3,102.4,122.3z"/>
	<path class="st12" d="M17.1,18.8c-0.8,0-1.5-0.7-1.5-1.5c0-1-0.8-1.9-1.9-1.9c-0.8,0-1.5-0.7-1.5-1.5c0-0.8,0.7-1.5,1.5-1.5
		c1,0,1.9-0.8,1.9-1.9c0-0.8,0.7-1.5,1.5-1.5s1.5,0.7,1.5,1.5c0,1,0.8,1.9,1.9,1.9c0.8,0,1.5,0.7,1.5,1.5c0,0.8-0.7,1.5-1.5,1.5
		c-1,0-1.9,0.8-1.9,1.9C18.6,18.1,18,18.8,17.1,18.8z"/>
	<path class="st17" d="M4.8,31.1c-0.4,0-0.8-0.2-1-0.4l-3.4-3.4c-0.6-0.6-0.6-1.5,0-2.1l3.4-3.4c0.3-0.3,0.7-0.4,1-0.4
		s0.8,0.2,1,0.4l3.4,3.4c0.3,0.3,0.4,0.7,0.4,1c0,0.4-0.2,0.8-0.4,1l-3.4,3.4C5.6,30.9,5.2,31.1,4.8,31.1L4.8,31.1z M3.6,26.2
		l1.3,1.3l1.3-1.3L4.8,25L3.6,26.2z"/>
	<path class="st18" d="M113.9,112.8c-0.4,0-0.8-0.1-1-0.4l-3.4-3.4c-0.3-0.3-0.4-0.7-0.4-1s0.2-0.8,0.4-1l3.4-3.4
		c0.6-0.6,1.5-0.6,2.1,0l3.4,3.4c0.3,0.3,0.4,0.7,0.4,1s-0.2,0.8-0.4,1l-3.4,3.4C114.7,112.7,114.3,112.8,113.9,112.8z M112.7,108
		l1.3,1.3l1.3-1.3l-1.3-1.3L112.7,108z"/>
	<path class="st8" d="M81.6,45.9c-4.3-3.6-9.6-5.5-15.3-5.5l-0.2,0c-6.5,0-12.5,2.6-17,7.3c-9,9.2-9,24.2,0,33.4
		c4.5,4.6,10.6,7.2,17,7.3c0,0,0.1,0,0.1,0c6.4,0,12.4-2.5,16.9-7c0.4-0.4,0.5-1.1,0.3-1.6c-0.9-2.2-1.4-4.6-1.4-7V47
		C82.1,46.6,81.9,46.2,81.6,45.9L81.6,45.9z M66.3,85.4c0,0-0.1,0-0.1,0c-5.7,0-11-2.3-14.9-6.4c-7.8-8.1-7.8-21.2,0-29.3
		c4-4.1,9.3-6.3,14.9-6.4l0.1,0c4.7,0,9.2,1.5,12.8,4.4v25c0,2.5,0.4,4.9,1.2,7.2C76.5,83.4,71.6,85.4,66.3,85.4L66.3,85.4z"/>
	<path class="st8" d="M128,17.8c0-8.9-7.3-16.1-16.2-16.1c-8.6,0-15.7,6.8-16.1,15.2C86.7,11.1,76.3,8,65.6,8h-0.2
		c-15.1,0-29.2,5.9-39.8,16.5C14.9,35.1,9.1,49.2,9.1,64.2c0,9.2,2.3,18.4,6.7,26.5c-3.6,3.3-5.6,8.3-5,13.7
		c0.8,7.3,6.6,13.1,13.9,14.1c9.5,1.3,17.6-5.7,18.4-14.7c6.8,3.9,14.6,5.9,22.5,5.9c2,0,3.7,1.4,3.9,3.4c0.3,2.3-1.6,4.3-3.8,4.3
		c-5.6,0-11.1-0.9-16.4-2.6c-0.9-0.3-1.8,0.3-1.9,1.3c-0.1,0.7,0.4,1.4,1.1,1.6c5.5,1.8,11.3,2.7,17.1,2.7c3.5,0,6.5-2.5,7-5.9
		c0.6-4.2-2.7-7.8-6.8-7.8c-8,0-15.8-2.2-22.6-6.5c-1-7.1-6.6-12.8-13.7-13.8c-4.1-6.7-6.3-14.4-6.3-22.3
		c0-23.4,19.1-42.5,42.6-42.5h0.1c11.2,0,21.8,4.4,29.9,12.5c8.2,8.2,12.8,19,12.8,30.5v7.8c0,3.8-2.7,7.1-6.4,7.7
		c-4.8,0.8-9-2.9-9-7.6V63c0-0.7-0.5-1.4-1.2-1.5c-1-0.2-1.8,0.5-1.8,1.5v9.5c0,5.3,3.8,10,9.1,10.7c6.6,1,12.3-4.1,12.3-10.5v-8
		c0-12.3-4.8-23.8-13.6-32.6c-8.6-8.6-20-13.3-32-13.3h-0.1c-25.1,0-45.6,20.5-45.6,45.5c0,7.8,2,15.4,5.8,22.1
		c-2.7,0.2-5.3,1.1-7.5,2.5c-4-7.6-6.1-16-6.1-24.6c0-14.2,5.5-27.6,15.6-37.6C37.9,16.6,51.2,11,65.5,11h0.3
		c10.9,0,21.3,3.3,30.2,9.6c0,0,0,0,0,0c1.2,6.6,6.4,11.9,13.1,13c6.5,9.1,9.9,19.8,9.9,31v7.7c0,9.8-7.6,18.1-17.5,18.6
		c-4.3,0.2-8.3-1-11.7-3.5c-0.6-0.4-1.4-0.4-1.9,0.1c-5.9,5.4-13.5,8.4-21.5,8.4l-0.3,0c-8.5-0.1-16.5-3.5-22.5-9.6
		c-5.8-5.9-8.9-13.8-8.9-22.1c0-8.3,3.2-16.2,8.9-22.1c6-6.1,14-9.5,22.5-9.6c0.1,0,0.2,0,0.2,0c8.5,0,16.4,3.3,22.4,9.3
		c0.7,0.7,1.1,1.7,1.1,2.7v8.3c0,0.7,0.5,1.4,1.2,1.5c1,0.2,1.8-0.5,1.8-1.5v-8.3c0-1.8-0.7-3.5-2-4.8c-6.6-6.6-15.3-10.1-24.5-10.1
		c-0.1,0-0.2,0-0.3,0c-9.4,0.1-18.1,3.8-24.7,10.5c-6.3,6.5-9.8,15.1-9.8,24.2s3.5,17.7,9.8,24.2c6.5,6.7,15.3,10.4,24.7,10.5l0.2,0
		c8.4,0,16.4-3,22.6-8.4c3.9,2.5,8.5,3.7,13.2,3.4c10.9-0.8,19.8-10.6,19.8-21.5v-7.7c0-11-3.2-21.6-9.1-30.7
		C121.2,33.4,128,26.4,128,17.8L128,17.8z M40.4,102.6c0,7.3-5.9,13.2-13.2,13.2s-13.2-5.9-13.2-13.2c0-7.3,5.9-13.2,13.2-13.2
		S40.4,95.3,40.4,102.6z M111.9,31.1c-7.3,0-13.2-5.9-13.2-13.2s5.9-13.2,13.2-13.2c7.3,0,13.2,5.9,13.2,13.2S119.2,31.1,111.9,31.1
		z"/>
</g>
</svg>
