<?xml version="1.0" encoding="utf-8"?>
<!-- Generator: Adobe Illustrator 23.0.1, SVG Export Plug-In . SVG Version: 6.00 Build 0)  -->
<svg version="1.1" id="Camada_1" xmlns="http://www.w3.org/2000/svg" xmlns:xlink="http://www.w3.org/1999/xlink" x="0px" y="0px"
	 viewBox="0 0 128 128" style="enable-background:new 0 0 128 128;" xml:space="preserve">
<style type="text/css">
	.st0{opacity:0.1;fill:#992E2E;enable-background:new    ;}
	.st1{fill:#FF9D33;}
	.st2{fill:#FFC599;}
	.st3{fill:#FFF3EE;}
	.st4{fill:#FFAB66;}
	.st5{fill:#FF4D4D;}
	.st6{fill:#FF2C2C;}
	.st7{fill:#FF8B00;}
	.st8{fill:#992E2E;}
	.st9{fill:#FF6C6C;}
	.st10{fill:#6C6CFF;}
	.st11{fill:#4D4DFF;}
	.st12{fill:#FF7EB8;}
	.st13{fill:#FF5BA8;}
	.st14{fill:#02FFB3;}
	.st15{fill:#FFFFFF;}
	.st16{fill:#9FB0FE;}
	.st17{fill:#6583FE;}
	.st18{fill:#01ECA5;}
	.st19{fill:#2C27FF;}
	.st20{fill:#EBEBFF;}
	.st21{fill:#FFB3B3;}
	.st22{fill:#B3B3FF;}
	.st23{fill:#FF7300;}
	.st24{fill:#9494FF;}
	.st25{fill:#D9D9FF;}
	.st26{fill:#AFABC6;}
	.st27{fill:#8E8CA8;}
	.st28{fill:#F5F4F9;}
	.st29{fill:#FFBE92;}
	.st30{fill:#DDD9E4;}
	.st31{fill:#C182F9;}
	.st32{fill:#CECAE0;}
	.st33{fill:#FFA052;}
	.st34{fill:#FDD250;}
	.st35{fill:#FFE783;}
	.st36{fill:#FF8736;}
</style>
<g>
	<path class="st0" d="M126.6,84.4V64.7c0-1.5-1.2-2.8-2.8-2.8h-13.6V31.5c0-2.3-1.9-4.2-4.2-4.2h-76c-2.3,0-4.2,1.9-4.2,4.2v22H4.2
		c-1.5,0-2.8,1.2-2.8,2.8v28.1H126.6z"/>
	<path class="st26" d="M80.5,111.1H55.6l3.3-12.9l1.7-6.8h15l1.7,6.8L80.5,111.1z"/>
	<path class="st27" d="M77.5,98H58.7l1.8-7h15.2L77.5,98z"/>
	<path class="st28" d="M106,95h-76c-2.3,0-4.2-1.9-4.2-4.2V36.3c0-2.3,1.9-4.2,4.2-4.2h76c2.3,0,4.2,1.9,4.2,4.2v54.5
		C110.2,93.1,108.3,95,106,95z"/>
	<path class="st29" d="M98.8,63.8H37.3c-0.5,0-0.8-0.4-0.8-0.8V43h63.2v20C99.6,63.4,99.2,63.8,98.8,63.8z"/>
	<path class="st30" d="M74,70.2H44.4c-0.7,0-1.3-0.4-1.4-1.1c-0.2-0.9,0.5-1.7,1.4-1.7h29.6c0.7,0,1.3,0.4,1.4,1.1
		C75.5,69.4,74.9,70.2,74,70.2z"/>
	<path class="st30" d="M74,75.8H44.4c-0.7,0-1.3-0.4-1.4-1.1c-0.2-0.9,0.5-1.7,1.4-1.7h29.6c0.7,0,1.3,0.4,1.4,1.1
		C75.5,75,74.9,75.8,74,75.8z"/>
	<path class="st29" d="M88.7,75.8h-4.5c-0.7,0-1.3-0.4-1.4-1.1c-0.2-0.9,0.5-1.7,1.4-1.7h4.5c0.7,0,1.3,0.4,1.4,1.1
		C90.3,75,89.6,75.8,88.7,75.8z"/>
	<path class="st31" d="M110.2,43v-6.4c0-2.3-1.9-4.2-4.2-4.2h-76c-2.3,0-4.2,1.9-4.2,4.2V43H110.2z"/>
	<path class="st32" d="M25.9,83.9v7c0,2.3,1.9,4.2,4.2,4.2h76c2.3,0,4.2-1.9,4.2-4.2v-7H25.9z"/>
	<path class="st33" d="M123.8,111.1h-20.6c-1.5,0-2.8-1.2-2.8-2.8V69.7c0-1.5,1.2-2.8,2.8-2.8h20.6c1.5,0,2.8,1.2,2.8,2.8v38.7
		C126.6,109.9,125.4,111.1,123.8,111.1L123.8,111.1z"/>
	<path class="st28" d="M100.5,93.9v14.5c0,1.5,1.2,2.8,2.8,2.8h20.6c1.5,0,2.8-1.2,2.8-2.8V93.9H100.5z"/>
	<path class="st32" d="M119,70.9l1.3-4h-13.4l1.3,4c0.2,0.6,0.7,1,1.3,1h8.1C118.3,71.9,118.8,71.5,119,70.9L119,70.9z"/>
	<path class="st28" d="M41.5,111.1H4.2c-1.5,0-2.8-1.2-2.8-2.8v-47c0-1.5,1.2-2.8,2.8-2.8h37.3c1.5,0,2.8,1.2,2.8,2.8v47
		C44.2,109.9,43,111.1,41.5,111.1z"/>
	<path class="st34" d="M44.2,67.7v-6.4c0-1.5-1.2-2.8-2.8-2.8H4.2c-1.5,0-2.8,1.2-2.8,2.8v6.4H44.2z"/>
	<path class="st29" d="M17.5,105.6H8.9c-0.5,0-0.8-0.4-0.8-0.8V74.7c0-0.5,0.4-0.8,0.8-0.8h8.6c0.5,0,0.8,0.4,0.8,0.8v30.1
		C18.4,105.2,18,105.6,17.5,105.6z"/>
	<path class="st29" d="M37,84.1H23.1c-0.5,0-0.8-0.4-0.8-0.8v-8.6c0-0.5,0.4-0.8,0.8-0.8H37c0.5,0,0.8,0.4,0.8,0.8v8.6
		C37.8,83.8,37.5,84.1,37,84.1z"/>
	<path class="st29" d="M37,105.6H23.1c-0.5,0-0.8-0.4-0.8-0.8V88.9c0-0.5,0.4-0.8,0.8-0.8H37c0.5,0,0.8,0.4,0.8,0.8v15.9
		C37.8,105.2,37.5,105.6,37,105.6z"/>
	<path class="st8" d="M32.8,37.6L32.8,37.6c0,0.5,0.3,1,0.8,1.2c1,0.4,2-0.3,2-1.3v0c0-0.9-0.8-1.5-1.7-1.4
		C33.3,36.3,32.8,36.9,32.8,37.6z"/>
	<path class="st8" d="M37.3,37.6L37.3,37.6c0,0.5,0.3,1,0.8,1.2c1,0.4,2-0.3,2-1.3v0c0-0.9-0.8-1.5-1.7-1.4
		C37.7,36.3,37.3,36.9,37.3,37.6z"/>
	<path class="st8" d="M41.5,37.6L41.5,37.6c0,0.5,0.3,1,0.8,1.2c1,0.4,2-0.3,2-1.3v0c0-0.9-0.8-1.5-1.7-1.4
		C41.9,36.3,41.5,36.9,41.5,37.6z"/>
	<path class="st8" d="M123.8,65.5h-12.2V36.6c0-3.1-2.5-5.6-5.6-5.6H26c-0.8,0-1.5,0.7-1.5,1.5v18.9c0,0.1,0,0.2,0.1,0.3
		c1.2,1.2,2.7,0.4,2.7-0.8v-6.5h81.5v21.1h-5.6c-2.3,0-4.2,1.9-4.2,4.2v6.7c0,0.7,0.4,1.3,1.1,1.4c0.9,0.2,1.7-0.5,1.7-1.4v-6.8
		c0-0.8,0.6-1.4,1.4-1.4h2.7l1,3.1c0.4,1.2,1.4,2,2.6,2h8c1.2,0,2.3-0.8,2.7-2l1-3.1h2.6c0.8,0,1.4,0.6,1.4,1.4v38.7
		c0,0.8-0.6,1.4-1.4,1.4h-20.6c-0.8,0-1.4-0.6-1.4-1.4V83.9c0-0.8-0.6-1.4-1.4-1.4H45.6V61.3c0-2.3-1.9-4.2-4.2-4.2H4.2
		C1.9,57.1,0,59,0,61.3v47c0,2.3,1.9,4.2,4.2,4.2h37.3c2.3,0,4.2-1.9,4.2-4.2v-12h12.2l-3.4,13.4h-3.1c-0.7,0-1.3,0.4-1.4,1.1
		c-0.2,0.9,0.5,1.7,1.4,1.7h33.5c0.7,0,1.3-0.4,1.4-1.1c0.2-0.9-0.5-1.7-1.4-1.7h-3.3l-3.4-13.4h20.9v12c0,2.3,1.9,4.2,4.2,4.2h20.6
		c2.3,0,4.2-1.9,4.2-4.2V69.7C128,67.4,126.1,65.5,123.8,65.5L123.8,65.5z M27.3,41.6v-5c0-1.5,1.2-2.8,2.8-2.8h76
		c1.5,0,2.8,1.2,2.8,2.8v5H27.3z M117.8,70.5h-8.3l-0.7-2.2h9.7L117.8,70.5z M4.2,59.9h37.3c0.8,0,1.4,0.6,1.4,1.4v5H2.8v-5
		C2.8,60.6,3.4,59.9,4.2,59.9L4.2,59.9z M41.5,109.7H4.2c-0.8,0-1.4-0.6-1.4-1.4V69.1h40.1l0,39.2C42.9,109.1,42.2,109.7,41.5,109.7
		z M78.9,109.7H57.3l3.4-13.4h14.9L78.9,109.7z M45.6,93.6v-8.3h53.4v8.3H45.6z"/>
	<path class="st8" d="M10,63L10,63c0-0.5-0.3-1-0.8-1.2c-1-0.4-2,0.3-2,1.3v0c0,0.9,0.8,1.5,1.7,1.4C9.6,64.3,10,63.6,10,63z"/>
	<path class="st8" d="M14.5,63L14.5,63c0-0.5-0.3-1-0.8-1.2c-1-0.4-2,0.3-2,1.3v0c0,0.9,0.8,1.5,1.7,1.4C14,64.3,14.5,63.6,14.5,63z
		"/>
	<path class="st8" d="M18.6,63L18.6,63c0-0.5-0.3-1-0.8-1.2c-1-0.4-2,0.3-2,1.3v0c0,0.9,0.8,1.5,1.7,1.4
		C18.2,64.3,18.6,63.6,18.6,63z"/>
	<path class="st8" d="M67.4,52.6l0.6-0.6l0.6,0.6c0.3,0.3,0.6,0.4,1,0.4c0.4,0,0.7-0.1,1-0.4c0.5-0.5,0.5-1.4,0-2L69.1,49
		c-0.5-0.5-1.4-0.5-2,0l-1.6,1.6c-0.5,0.5-0.5,1.4,0,2C66,53.2,66.9,53.2,67.4,52.6L67.4,52.6z"/>
	<path class="st35" d="M110.7,104.7h-3.9c-0.5,0-0.8-0.4-0.8-0.8V80c0-0.5,0.4-0.8,0.8-0.8h3.9c0.5,0,0.8,0.4,0.8,0.8v23.9
		C111.6,104.4,111.2,104.7,110.7,104.7z"/>
	<path class="st35" d="M103.6,24.4c-0.8,0-1.4-0.6-1.4-1.4c0-0.9-0.7-1.7-1.7-1.7c-0.8,0-1.4-0.6-1.4-1.4c0-0.8,0.6-1.4,1.4-1.4
		c0.9,0,1.7-0.7,1.7-1.7c0-0.8,0.6-1.4,1.4-1.4s1.4,0.6,1.4,1.4c0,0.9,0.7,1.7,1.7,1.7c0.8,0,1.4,0.6,1.4,1.4c0,0.8-0.6,1.4-1.4,1.4
		c-0.9,0-1.7,0.7-1.7,1.7C105,23.8,104.3,24.4,103.6,24.4z"/>
	<path class="st31" d="M120.2,60.5c-0.8,0-1.4-0.6-1.4-1.4c0-0.9-0.7-1.7-1.7-1.7c-0.8,0-1.4-0.6-1.4-1.4c0-0.8,0.6-1.4,1.4-1.4
		c0.9,0,1.7-0.7,1.7-1.7c0-0.8,0.6-1.4,1.4-1.4s1.4,0.6,1.4,1.4c0,0.9,0.7,1.7,1.7,1.7c0.8,0,1.4,0.6,1.4,1.4c0,0.8-0.6,1.4-1.4,1.4
		c-0.9,0-1.7,0.7-1.7,1.7C121.6,59.8,121,60.5,120.2,60.5z"/>
	<path class="st33" d="M116.3,30.6c-0.4,0-0.7-0.1-1-0.4l-3.1-3.1c-0.5-0.5-0.5-1.4,0-2l3.1-3.1c0.5-0.5,1.4-0.5,2,0l3.1,3.1
		c0.5,0.5,0.5,1.4,0,2l-3.1,3.1C117,30.4,116.7,30.6,116.3,30.6z M115.2,26.1l1.1,1.1l1.1-1.1l-1.1-1.1L115.2,26.1z"/>
	<path class="st33" d="M13.2,50.7c-0.4,0-0.7-0.1-1-0.4l-3.1-3.1c-0.5-0.5-0.5-1.4,0-2l3.1-3.1c0.5-0.5,1.4-0.5,2,0l3.1,3.1
		c0.5,0.5,0.5,1.4,0,2l-3.1,3.1C13.9,50.6,13.5,50.7,13.2,50.7z M12.1,46.3l1.1,1.1l1.1-1.1l-1.1-1.1L12.1,46.3z"/>
	<circle class="st36" cx="93.9" cy="58.5" r="1.6"/>
	<circle class="st36" cx="93.9" cy="53.8" r="1.6"/>
	<circle class="st36" cx="93.9" cy="49.1" r="1.6"/>
</g>
</svg>
