<?xml version="1.0" encoding="utf-8"?>
<!-- Generator: Adobe Illustrator 24.3.0, SVG Export Plug-In . SVG Version: 6.00 Build 0)  -->
<svg version="1.1" id="Camada_1" xmlns="http://www.w3.org/2000/svg" xmlns:xlink="http://www.w3.org/1999/xlink" x="0px" y="0px"
	 viewBox="0 0 1080 1080" style="enable-background:new 0 0 1080 1080;" xml:space="preserve">
<style type="text/css">
	.st0{fill:#FFFFFF;}
</style>
<g>
	<g>
		<rect x="456.28" y="780" class="st0" width="167.44" height="159.07"/>
	</g>
	<g>
		<path class="st0" d="M753.49,993.49H327.91v-37.33c0-9.44,7.65-17.09,17.09-17.09h391.4c9.44,0,17.09,7.65,17.09,17.09V993.49z"/>
	</g>
	<g>
		<g>
			<path class="st0" d="M286.41,295.78c-1.36-3.01-2.64-6.21-3.86-9.6c-0.63,1.79-1.27,3.52-1.93,5.17c-0.65,1.65-1.32,3.23-2,4.73
				l-5.75,13.1h19.43L286.41,295.78z"/>
		</g>
		<g>
			<path class="st0" d="M1037.99,86.51H42.01C18.81,86.51,0,105.32,0,128.52v609.47C0,761.19,18.81,780,42.01,780H870.7V594.41
				c0-13.1,10.62-23.71,23.71-23.71h161.88c13.1,0,23.71,10.62,23.71,23.71V128.52C1080,105.32,1061.19,86.51,1037.99,86.51z
				 M562.72,263.57l10.23-13.71c0.31-0.41,0.39-0.95,0.23-1.44l-5.49-16.2c-0.42-1.23,0.76-2.4,1.99-1.99l16.2,5.49
				c0.49,0.17,1.03,0.08,1.44-0.23l13.71-10.23c1.04-0.78,2.52-0.02,2.5,1.28l-0.22,17.1c-0.01,0.52,0.24,1,0.66,1.3l13.97,9.88
				c1.06,0.75,0.8,2.39-0.44,2.77l-16.33,5.08c-0.49,0.15-0.88,0.54-1.03,1.03l-5.08,16.33c-0.39,1.24-2.03,1.5-2.77,0.44
				l-9.88-13.97c-0.3-0.42-0.78-0.67-1.3-0.66l-17.1,0.22C562.7,266.09,561.95,264.61,562.72,263.57z M511.07,677.22l2.35-3.15
				c0.07-0.1,0.09-0.22,0.05-0.33l-1.26-3.73c-0.1-0.28,0.17-0.55,0.46-0.46l3.73,1.26c0.11,0.04,0.24,0.02,0.33-0.05l3.15-2.35
				c0.24-0.18,0.58-0.01,0.58,0.29l-0.05,3.94c0,0.12,0.06,0.23,0.15,0.3l3.21,2.27c0.24,0.17,0.18,0.55-0.1,0.64l-3.76,1.17
				c-0.11,0.04-0.2,0.12-0.24,0.24l-1.17,3.76c-0.09,0.29-0.47,0.35-0.64,0.1l-2.27-3.21c-0.07-0.1-0.18-0.15-0.3-0.15l-3.94,0.05
				C511.06,677.8,510.89,677.46,511.07,677.22z M278.48,278.03h8.66l22.48,50.93h-8.51l-5.46-12.22h-26.12l-5.46,12.22h-8.15
				L278.48,278.03z M308.61,403.57c-1.99,3.86-4.95,6.94-8.88,9.24c-3.93,2.3-8.8,3.46-14.62,3.46H261.9v-50.93h23.21
				c4.37,0,8.2,0.67,11.5,2c3.3,1.33,6.06,3.18,8.29,5.53c2.23,2.35,3.9,5.07,5.02,8.15c1.12,3.08,1.67,6.34,1.67,9.79
				C311.59,395.46,310.59,399.72,308.61,403.57z M366.67,372.91h-29.9v13.46h25.9v7.57h-25.9v14.77h29.9v7.57H328.9v-50.93h37.76
				V372.91z M368.12,321.32c-1.12,1.94-2.58,3.47-4.4,4.58c-1.82,1.12-3.83,1.9-6.04,2.36c-2.21,0.46-4.43,0.69-6.66,0.69h-26.26
				v-50.93h24.88c5.77,0,10.12,1.09,13.06,3.27c2.93,2.18,4.4,5.36,4.4,9.53c0,2.28-0.62,4.33-1.86,6.15
				c-1.24,1.82-3.05,3.21-5.42,4.18c1.75,0.58,3.38,1.41,4.91,2.47c1.53,1.07,2.75,2.45,3.67,4.15c0.92,1.7,1.38,3.76,1.38,6.18
				C369.8,316.93,369.24,319.38,368.12,321.32z M424.07,372.91h-30.05v14.55h26.77v7.57h-26.77v21.25h-7.86v-50.93h37.91V372.91z
				 M394.17,313.72c1.89,2.74,4.35,4.79,7.38,6.15c3.03,1.36,6.29,2.04,9.79,2.04c2.47,0,4.7-0.33,6.69-0.98
				c1.99-0.66,3.77-1.48,5.35-2.47c1.58-0.99,2.95-1.98,4.11-2.95l3.86,6.48c-1.21,1.16-2.87,2.34-4.98,3.53
				c-2.11,1.19-4.52,2.18-7.24,2.98c-2.72,0.8-5.6,1.2-8.66,1.2c-3.83,0-7.39-0.62-10.66-1.86c-3.27-1.24-6.15-2.99-8.62-5.27
				c-2.47-2.28-4.4-5.03-5.78-8.26c-1.38-3.23-2.07-6.83-2.07-10.8c0-3.73,0.73-7.18,2.18-10.33c1.46-3.15,3.46-5.89,6-8.22
				c2.55-2.33,5.47-4.13,8.77-5.42c3.3-1.29,6.79-1.93,10.48-1.93c3.06,0,5.95,0.43,8.69,1.27c2.74,0.85,5.19,1.93,7.35,3.24
				c2.16,1.31,3.89,2.69,5.2,4.15l-4.95,6.11c-2.28-2.04-4.79-3.71-7.53-5.02c-2.74-1.31-5.81-1.96-9.2-1.96
				c-2.38,0-4.71,0.41-6.99,1.24c-2.28,0.83-4.32,2.03-6.11,3.6c-1.8,1.58-3.23,3.48-4.29,5.71c-1.07,2.23-1.6,4.75-1.6,7.57
				C391.33,307.57,392.28,310.98,394.17,313.72z M491.88,401.94c-0.82,2.43-1.96,4.51-3.42,6.26c-2.23,2.76-5.27,4.92-9.13,6.48
				c-3.86,1.55-8.28,2.33-13.28,2.33c-3.88,0-7.54-0.61-10.99-1.82c-3.44-1.21-6.48-2.96-9.09-5.24c-2.62-2.28-4.68-5.03-6.18-8.26
				c-1.5-3.23-2.25-6.85-2.25-10.88c0-3.69,0.74-7.09,2.22-10.22c1.48-3.13,3.54-5.87,6.18-8.22c2.64-2.35,5.74-4.18,9.28-5.49
				c3.54-1.31,7.37-1.96,11.5-1.96c3.3,0,6.38,0.41,9.24,1.24c2.86,0.83,5.37,1.89,7.53,3.2c2.16,1.31,3.87,2.72,5.13,4.22
				l-5.09,5.53c-2.33-1.94-4.9-3.52-7.71-4.73c-2.81-1.21-5.85-1.82-9.09-1.82c-3.98,0-7.54,0.8-10.7,2.4
				c-3.15,1.6-5.65,3.77-7.49,6.51c-1.84,2.74-2.77,5.86-2.77,9.35c0,3.93,0.97,7.28,2.91,10.04c1.94,2.76,4.5,4.87,7.68,6.33
				c3.18,1.45,6.58,2.18,10.22,2.18c3.25,0,6.24-0.48,8.98-1.45c2.74-0.97,4.92-2.29,6.55-3.97c1.62-1.67,2.44-3.58,2.44-5.71
				h-17.97v-7.64h26.19c0.1,0.63,0.18,1.26,0.25,1.89c0.07,0.63,0.11,1.26,0.11,1.89C493.12,396.99,492.71,399.51,491.88,401.94z
				 M540.63,730.04c-16.93,0-30.65-5.72-30.65-12.77c5.53,0,10.61-2.33,14.19-6.15c0.6,0.33,1.22,0.65,1.85,0.95
				c9.1,4.27,19.14,3.63,26.69-0.85c-7.93,1.66-16.68,0.79-24.86-3.05c-0.36-0.17-0.72-0.35-1.08-0.53
				c0.94-1.61,1.67-3.38,2.12-5.28l7.58-31.52c0.14-0.29-0.13-0.61-0.48-0.57l-12.21,1.22c-0.47,0.05-0.68-0.52-0.27-0.73l13.97-7.3
				c1.67-0.87,3.81-0.22,4.54,1.38l0.63,1.38c0.02,0.04,0.05,0.09,0.07,0.13l9.45,36.36c2.23,8.58,9.97,14.56,18.83,14.56h0.29
				C571.29,724.32,557.56,730.04,540.63,730.04z M691.2,493.11c-73.56,0-133.2-24.85-133.2-55.5c24.01,0,46.09-10.13,61.68-26.74
				c2.62,1.45,5.3,2.83,8.05,4.12c39.56,18.55,83.16,15.78,115.98-3.68c-34.44,7.23-72.47,3.44-108.04-13.25
				c-1.58-0.74-3.15-1.51-4.7-2.3c4.1-7.01,7.24-14.7,9.22-22.92l32.92-136.96c0.59-1.27-0.57-2.64-2.09-2.49l-53.06,5.31
				c-2.06,0.21-2.97-2.26-1.18-3.19l60.7-31.73c7.25-3.79,16.56-0.96,19.74,6l2.75,6.01c0.11,0.19,0.23,0.37,0.32,0.58l41.04,157.99
				c9.68,37.26,43.32,63.28,81.82,63.28h1.24C824.4,468.27,764.76,493.11,691.2,493.11z"/>
		</g>
		<g>
			<path class="st0" d="M355.79,307.13c-1.72-0.44-3.43-0.65-5.13-0.65h-18.04v14.92h18.41c3.15,0,5.74-0.62,7.75-1.86
				c2.01-1.24,3.02-3.14,3.02-5.71c0-1.89-0.57-3.37-1.71-4.44C358.94,308.32,357.51,307.57,355.79,307.13z"/>
		</g>
		<g>
			<path class="st0" d="M356.44,297.09c1.77-1.16,2.66-2.81,2.66-4.95c0-2.38-0.93-4.06-2.8-5.06c-1.87-0.99-4.16-1.49-6.88-1.49
				h-16.81v13.31h17.68C352.62,298.86,354.67,298.26,356.44,297.09z"/>
		</g>
		<g>
			<path class="st0" d="M295.4,375.38c-2.74-1.65-6.29-2.47-10.66-2.47h-14.99v35.8h14.99c4.37,0,7.92-0.81,10.66-2.44
				c2.74-1.62,4.75-3.78,6.04-6.48c1.28-2.69,1.93-5.69,1.93-8.99c0-3.2-0.64-6.16-1.93-8.88
				C300.15,379.21,298.14,377.03,295.4,375.38z"/>
		</g>
	</g>
	<g>
		<g>
			<path class="st0" d="M943.21,681.26c-0.74-1.64-1.44-3.38-2.1-5.23c-0.34,0.98-0.69,1.92-1.05,2.81
				c-0.36,0.9-0.72,1.76-1.09,2.58l-3.13,7.14h10.58L943.21,681.26z"/>
		</g>
		<g>
			<path class="st0" d="M934.75,737.92c0.7-1.47,1.05-3.1,1.05-4.9c0-1.74-0.35-3.36-1.05-4.84c-0.7-1.48-1.8-2.67-3.29-3.57
				c-1.49-0.9-3.43-1.35-5.81-1.35h-8.17v19.5h8.17c2.38,0,4.31-0.44,5.81-1.33C932.95,740.57,934.05,739.39,934.75,737.92z"/>
		</g>
		<g>
			<path class="st0" d="M981.37,681.97c0.96-0.63,1.45-1.53,1.45-2.7c0-1.29-0.51-2.21-1.53-2.75c-1.02-0.54-2.27-0.81-3.75-0.81
				h-9.16v7.25h9.63C979.29,682.94,980.4,682.6,981.37,681.97z"/>
		</g>
		<g>
			<path class="st0" d="M982.64,694.2c1.1-0.67,1.65-1.71,1.65-3.11c0-1.03-0.31-1.84-0.93-2.42c-0.62-0.58-1.4-0.99-2.34-1.23
				c-0.94-0.24-1.87-0.36-2.79-0.36h-9.83v8.13h10.03C980.13,695.21,981.54,694.87,982.64,694.2z"/>
		</g>
		<g>
			<path class="st0" d="M1048.51,579.96H901.97c-12.68,0-22.97,10.28-22.97,22.97v342.87c0,12.68,10.28,22.97,22.97,22.97h146.54
				c12.68,0,22.97-10.28,22.97-22.97V602.93C1071.48,590.24,1061.2,579.96,1048.51,579.96z M997.2,679.83
				c0.79-1.72,1.88-3.21,3.27-4.48c1.39-1.27,2.98-2.25,4.78-2.95c1.8-0.7,3.7-1.05,5.71-1.05c1.66,0,3.24,0.23,4.74,0.69
				c1.49,0.46,2.83,1.05,4,1.76c1.18,0.71,2.12,1.47,2.83,2.26l-2.69,3.33c-1.24-1.11-2.61-2.02-4.1-2.74
				c-1.49-0.71-3.16-1.07-5.01-1.07c-1.3,0-2.56,0.22-3.81,0.67c-1.24,0.45-2.35,1.1-3.33,1.96c-0.98,0.86-1.76,1.9-2.34,3.11
				c-0.58,1.22-0.87,2.59-0.87,4.12c0,2.22,0.52,4.08,1.55,5.57c1.03,1.49,2.37,2.61,4.02,3.35c1.65,0.74,3.43,1.11,5.33,1.11
				c1.35,0,2.56-0.18,3.65-0.53c1.08-0.36,2.05-0.81,2.91-1.35c0.86-0.54,1.61-1.08,2.24-1.61l2.1,3.53
				c-0.66,0.63-1.57,1.28-2.72,1.92c-1.15,0.65-2.46,1.19-3.94,1.63c-1.48,0.44-3.05,0.65-4.72,0.65c-2.09,0-4.02-0.34-5.81-1.01
				c-1.78-0.67-3.35-1.63-4.7-2.87c-1.35-1.24-2.4-2.74-3.15-4.5c-0.75-1.76-1.13-3.72-1.13-5.89
				C996.01,683.42,996.41,681.55,997.2,679.83z M999.78,731.2v4.12h-14.59v11.58h-4.28v-27.75h20.65v4.12h-16.37v7.93H999.78z
				 M964.1,671.58h13.56c3.14,0,5.52,0.59,7.12,1.78c1.6,1.19,2.4,2.92,2.4,5.19c0,1.24-0.34,2.36-1.01,3.35
				c-0.67,0.99-1.66,1.75-2.95,2.28c0.95,0.32,1.84,0.77,2.68,1.35c0.83,0.58,1.5,1.33,2,2.26c0.5,0.93,0.75,2.05,0.75,3.37
				c0,1.61-0.3,2.95-0.91,4c-0.61,1.06-1.41,1.89-2.4,2.5c-0.99,0.61-2.09,1.04-3.29,1.29c-1.2,0.25-2.41,0.38-3.63,0.38H964.1
				V671.58z M968.11,730.61v4.12H954v8.05h16.29v4.12h-20.57v-27.75h20.57v4.12H954v7.33H968.11z M938.89,671.58h4.72l12.25,27.75
				h-4.64l-2.97-6.66h-14.23l-2.97,6.66h-4.44L938.89,671.58z M928.57,795.93l-2.18-6.43c-0.17-0.49,0.3-0.95,0.79-0.79l6.43,2.18
				c0.19,0.07,0.41,0.03,0.57-0.09l5.44-4.06c0.41-0.31,1-0.01,0.99,0.51l-0.09,6.79c0,0.2,0.1,0.4,0.26,0.52l5.54,3.92
				c0.42,0.3,0.32,0.95-0.17,1.1l-6.48,2.01c-0.2,0.06-0.35,0.21-0.41,0.41l-2.01,6.48c-0.15,0.49-0.8,0.6-1.1,0.17l-3.92-5.54
				c-0.12-0.17-0.31-0.27-0.52-0.26l-6.79,0.09c-0.52,0.01-0.81-0.58-0.51-0.99l4.06-5.44
				C928.61,796.33,928.64,796.12,928.57,795.93z M913.21,719.15h12.65c2.38,0,4.47,0.36,6.26,1.09c1.8,0.73,3.3,1.73,4.52,3.01
				c1.22,1.28,2.13,2.76,2.74,4.44c0.61,1.68,0.91,3.46,0.91,5.33c0,2.54-0.54,4.86-1.62,6.96c-1.08,2.1-2.7,3.78-4.84,5.03
				c-2.14,1.26-4.8,1.88-7.97,1.88h-12.65V719.15z M975.41,893.02c-29.19,0-52.85-9.86-52.85-22.02c9.53,0,18.29-4.02,24.47-10.61
				c1.04,0.58,2.1,1.12,3.19,1.64c15.7,7.36,33,6.26,46.02-1.46c-13.67,2.87-28.76,1.36-42.87-5.26c-0.63-0.29-1.25-0.6-1.86-0.91
				c1.63-2.78,2.88-5.83,3.66-9.1l13.06-54.35c0.23-0.5-0.22-1.05-0.83-0.99l-21.06,2.11c-0.82,0.08-1.18-0.9-0.47-1.27l24.09-12.59
				c2.88-1.5,6.57-0.38,7.83,2.38l1.09,2.38c0.04,0.08,0.09,0.15,0.13,0.23l16.29,62.69c3.84,14.79,17.19,25.11,32.47,25.11h0.49
				C1028.26,883.16,1004.6,893.02,975.41,893.02z M1038.51,739.09c-0.45,1.32-1.07,2.46-1.86,3.41c-1.22,1.51-2.87,2.68-4.97,3.53
				c-2.1,0.85-4.51,1.27-7.23,1.27c-2.11,0-4.11-0.33-5.99-0.99c-1.88-0.66-3.53-1.61-4.96-2.85c-1.43-1.24-2.55-2.74-3.37-4.5
				c-0.82-1.76-1.23-3.73-1.23-5.93c0-2.01,0.4-3.86,1.21-5.57c0.81-1.7,1.93-3.2,3.37-4.48c1.44-1.28,3.12-2.28,5.05-2.99
				c1.93-0.71,4.02-1.07,6.26-1.07c1.8,0,3.47,0.22,5.03,0.67c1.56,0.45,2.93,1.03,4.1,1.74c1.18,0.71,2.11,1.48,2.79,2.3
				l-2.78,3.01c-1.27-1.06-2.67-1.92-4.2-2.58c-1.53-0.66-3.18-0.99-4.95-0.99c-2.17,0-4.11,0.44-5.83,1.31
				c-1.72,0.87-3.08,2.06-4.08,3.55c-1,1.49-1.51,3.19-1.51,5.09c0,2.14,0.53,3.96,1.59,5.47c1.06,1.51,2.45,2.66,4.18,3.45
				c1.73,0.79,3.59,1.19,5.57,1.19c1.77,0,3.4-0.26,4.9-0.79c1.49-0.53,2.68-1.25,3.57-2.16c0.89-0.91,1.33-1.95,1.33-3.11h-9.79
				v-4.16h14.27c0.05,0.34,0.1,0.69,0.14,1.03c0.04,0.34,0.06,0.69,0.06,1.03C1039.18,736.4,1038.96,737.77,1038.51,739.09z"/>
		</g>
	</g>
</g>
</svg>
