<?xml version="1.0" encoding="utf-8"?>
<!-- Generator: Adobe Illustrator 23.0.1, SVG Export Plug-In . SVG Version: 6.00 Build 0)  -->
<svg version="1.1" id="Camada_1" xmlns="http://www.w3.org/2000/svg" xmlns:xlink="http://www.w3.org/1999/xlink" x="0px" y="0px"
	 viewBox="0 0 128 128" style="enable-background:new 0 0 128 128;" xml:space="preserve">
<style type="text/css">
	.st0{opacity:0.1;fill:#992E2E;enable-background:new    ;}
	.st1{fill:#FF9D33;}
	.st2{fill:#FFC599;}
	.st3{fill:#FFF3EE;}
	.st4{fill:#FFAB66;}
	.st5{fill:#FF4D4D;}
	.st6{fill:#FF2C2C;}
	.st7{fill:#FF8B00;}
	.st8{fill:#992E2E;}
	.st9{fill:#FF6C6C;}
	.st10{fill:#6C6CFF;}
	.st11{fill:#4D4DFF;}
	.st12{fill:#FF7EB8;}
	.st13{fill:#FF5BA8;}
	.st14{fill:#02FFB3;}
	.st15{fill:#FFFFFF;}
	.st16{fill:#9FB0FE;}
	.st17{fill:#6583FE;}
	.st18{fill:#01ECA5;}
	.st19{fill:#2C27FF;}
	.st20{fill:#EBEBFF;}
	.st21{fill:#FFB3B3;}
	.st22{fill:#B3B3FF;}
	.st23{fill:#FF7300;}
	.st24{fill:#9494FF;}
	.st25{fill:#D9D9FF;}
	.st26{fill:#AFABC6;}
	.st27{fill:#8E8CA8;}
	.st28{fill:#F5F4F9;}
	.st29{fill:#FFBE92;}
	.st30{fill:#DDD9E4;}
	.st31{fill:#C182F9;}
	.st32{fill:#CECAE0;}
	.st33{fill:#FFA052;}
	.st34{fill:#FDD250;}
	.st35{fill:#FFE783;}
	.st36{fill:#FF8736;}
</style>
<g>
	<path class="st0" d="M9.1,107.9h109.8c4.2,0,7.7-3.4,7.7-7.7V59.9c0-4.2-3.4-7.7-7.7-7.7H9.1c-4.2,0-7.7,3.4-7.7,7.7v40.3
		C1.4,104.5,4.8,107.9,9.1,107.9z"/>
	<path class="st0" d="M70.9,40.4c-0.3,0-0.5-0.1-0.7-0.2c-1.9-1.1-4-1.7-6.2-1.7c-2.2,0-4.3,0.6-6.2,1.7c-0.7,0.4-1.5,0.2-1.9-0.5
		c-0.4-0.7-0.2-1.5,0.5-1.9c2.3-1.4,5-2.1,7.7-2.1s5.4,0.7,7.7,2.1c0.7,0.4,0.9,1.3,0.5,1.9C71.8,40.1,71.4,40.4,70.9,40.4z"/>
	<path class="st0" d="M66.9,45c-0.3,0-0.5-0.1-0.7-0.2c-1.3-0.8-3.1-0.8-4.4,0c-0.7,0.4-1.5,0.2-1.9-0.5c-0.4-0.7-0.2-1.5,0.5-1.9
		c1.1-0.7,2.4-1,3.7-1s2.6,0.4,3.7,1c0.7,0.4,0.9,1.3,0.5,1.9C67.8,44.7,67.4,45,66.9,45z"/>
	<path class="st0" d="M74.6,35.5c-0.3,0-0.5-0.1-0.7-0.2c-3-1.8-6.4-2.8-9.9-2.8s-6.9,1-9.9,2.8c-0.7,0.4-1.5,0.2-1.9-0.5
		c-0.4-0.7-0.2-1.5,0.5-1.9c3.4-2.1,7.3-3.2,11.4-3.2s7.9,1.1,11.4,3.2c0.7,0.4,0.9,1.3,0.5,1.9C75.5,35.3,75,35.5,74.6,35.5
		L74.6,35.5z"/>
	<path class="st10" d="M9.1,100.2h109.8c4.2,0,7.7-3.4,7.7-7.7V52.3c0-4.2-3.4-7.7-7.7-7.7H9.1c-4.2,0-7.7,3.4-7.7,7.7v40.3
		C1.4,96.8,4.8,100.2,9.1,100.2z"/>
	<path class="st9" d="M9.1,44.6h54.8v55.6H9.1c-4.2,0-7.7-3.4-7.7-7.7V52.3C1.4,48.1,4.8,44.6,9.1,44.6L9.1,44.6z"/>
	<path class="st19" d="M105.9,100.2h-84V44.6h84V100.2z"/>
	<path class="st20" d="M27.5,51.1h72.7v42.6H27.5V51.1z"/>
	<path class="st8" d="M118.9,101.7H34c-0.1,0-0.2,0-0.2-0.1c-1.3-1.2-0.4-2.7,0.8-2.7h89.2c0.8,0,1.5-0.7,1.5-1.5V67.8
		c0-0.1,0-0.2,0.1-0.2c1.2-1.3,2.7-0.4,2.7,0.8v24.2C128,97.6,123.9,101.7,118.9,101.7z"/>
	<path class="st8" d="M24.8,101.7H9.1c-5,0-9.1-4.1-9.1-9.1V52.3c0-5,4.1-9.1,9.1-9.1h117.4c0.8,0,1.5,0.7,1.5,1.5v14.5
		c0,0.1,0,0.1-0.1,0.2c-1.2,1.3-2.8,0.5-2.8-0.8v-6.3c0-3.4-2.8-6.2-6.2-6.2H9.1c-3.4,0-6.2,2.8-6.2,6.2v45c0,0.8,0.7,1.5,1.5,1.5
		h21c0.1,0,0.2,0,0.2,0.1C26.9,100.2,26,101.7,24.8,101.7z"/>
	<circle class="st19" cx="12.9" cy="82.5" r="4.7"/>
	<circle class="st21" cx="13.1" cy="60.7" r="2.1"/>
	<circle class="st21" cx="13.1" cy="69.2" r="2.1"/>
	<circle class="st21" cx="17.3" cy="65" r="2.1"/>
	<circle class="st21" cx="8.8" cy="65" r="2.1"/>
	<circle class="st19" cx="115.8" cy="63.4" r="4.7"/>
	<circle class="st22" cx="115.6" cy="85.1" r="2.1"/>
	<circle class="st22" cx="115.6" cy="76.6" r="2.1"/>
	<circle class="st22" cx="111.4" cy="80.9" r="2.1"/>
	<circle class="st22" cx="119.9" cy="80.9" r="2.1"/>
	<path class="st15" d="M58.3,51.1L27.5,81.9V71.2l20.1-20.1L58.3,51.1z"/>
	<path class="st15" d="M84.1,51.1L41.5,93.7h-14v-4.4l38.2-38.2L84.1,51.1z"/>
	<path class="st15" d="M100.5,74v19.7H80.8L100.5,74z"/>
	<path class="st8" d="M70.9,32.7c-0.3,0-0.5-0.1-0.7-0.2c-1.9-1.1-4-1.7-6.2-1.7c-2.2,0-4.3,0.6-6.2,1.7c-0.7,0.4-1.5,0.2-1.9-0.5
		c-0.4-0.7-0.2-1.5,0.5-1.9c2.3-1.4,5-2.1,7.7-2.1s5.4,0.7,7.7,2.1c0.7,0.4,0.9,1.3,0.5,1.9C71.8,32.5,71.4,32.7,70.9,32.7z"/>
	<path class="st8" d="M66.9,37.3c-0.3,0-0.5-0.1-0.7-0.2c-1.3-0.8-3.1-0.8-4.4,0c-0.7,0.4-1.5,0.2-1.9-0.5c-0.4-0.7-0.2-1.5,0.5-1.9
		c1.1-0.7,2.4-1,3.7-1s2.6,0.4,3.7,1c0.7,0.4,0.9,1.3,0.5,1.9C67.8,37.1,67.4,37.3,66.9,37.3z"/>
	<path class="st8" d="M74.6,27.9c-0.3,0-0.5-0.1-0.7-0.2c-3-1.8-6.4-2.8-9.9-2.8s-6.9,1-9.9,2.8c-0.7,0.4-1.5,0.2-1.9-0.5
		c-0.4-0.7-0.2-1.5,0.5-1.9c3.4-2.1,7.3-3.2,11.4-3.2s7.9,1.1,11.4,3.2c0.7,0.4,0.9,1.3,0.5,1.9C75.5,27.6,75,27.9,74.6,27.9
		L74.6,27.9z"/>
	<path class="st1" d="M117.8,116.1c-0.4,0-0.7-0.1-1-0.4l-3.1-3.1c-0.6-0.6-0.6-1.5,0-2l3.1-3.1c0.6-0.6,1.5-0.6,2,0l3.1,3.1
		c0.6,0.6,0.6,1.5,0,2l-3.1,3.1C118.5,116,118.2,116.1,117.8,116.1z M116.7,111.6l1.1,1.1l1.1-1.1l-1.1-1.1L116.7,111.6z"/>
	<path class="st9" d="M17.6,38.1c-0.4,0-0.7-0.1-1-0.4l-3.1-3.1c-0.6-0.6-0.6-1.5,0-2l3.1-3.1c0.6-0.6,1.5-0.6,2,0l3.1,3.1
		c0.6,0.6,0.6,1.5,0,2l-3.1,3.1C18.4,38,18,38.1,17.6,38.1z M16.5,33.6l1.1,1.1l1.1-1.1l-1.1-1.1L16.5,33.6z"/>
	<path class="st10" d="M42.9,118.2c-2,0-3.7-1.7-3.7-3.7s1.7-3.7,3.7-3.7c2,0,3.7,1.7,3.7,3.7C46.6,116.6,45,118.2,42.9,118.2z
		 M42.9,113.7c-0.5,0-0.9,0.4-0.9,0.9c0,0.5,0.4,0.9,0.9,0.9c0.5,0,0.9-0.4,0.9-0.9C43.8,114.1,43.4,113.7,42.9,113.7z"/>
	<path class="st10" d="M80.1,17.2c-2,0-3.7-1.7-3.7-3.7s1.7-3.7,3.7-3.7s3.7,1.7,3.7,3.7C83.8,15.5,82.1,17.2,80.1,17.2z M80.1,12.6
		c-0.5,0-0.9,0.4-0.9,0.9s0.4,0.9,0.9,0.9s0.9-0.4,0.9-0.9S80.6,12.6,80.1,12.6z"/>
	<path class="st9" d="M98.1,37.3c-2,0-3.7-1.7-3.7-3.7c0-2,1.7-3.7,3.7-3.7s3.7,1.7,3.7,3.7C101.7,35.6,100.1,37.3,98.1,37.3z
		 M98.1,32.7c-0.5,0-0.9,0.4-0.9,0.9c0,0.5,0.4,0.9,0.9,0.9c0.5,0,0.9-0.4,0.9-0.9C98.9,33.1,98.5,32.7,98.1,32.7z"/>
</g>
</svg>
