<?xml version="1.0" encoding="utf-8"?>
<!-- Generator: Adobe Illustrator 24.3.0, SVG Export Plug-In . SVG Version: 6.00 Build 0)  -->
<svg version="1.1" id="Camada_1" xmlns="http://www.w3.org/2000/svg" xmlns:xlink="http://www.w3.org/1999/xlink" x="0px" y="0px"
	 viewBox="0 0 1080 1080" style="enable-background:new 0 0 1080 1080;" xml:space="preserve">
<style type="text/css">
	.st0{fill:#FFFFFF;}
</style>
<g>
	<circle class="st0" cx="410.4" cy="543.23" r="80.68"/>
	<circle class="st0" cx="669.6" cy="543.23" r="80.68"/>
	<path class="st0" d="M1063.28,638.08l-42.31-62.04l1.04-0.01l-51.58-74.11L802.52,255.73c-6.19-9.49-15.89-15.95-26.77-18.14
		c-3.98-1.24-8.17-1.91-12.46-1.91H312.5c-14.13,0-27.3,7.14-35.02,18.98L16.72,637.01C6.73,656.11,0,682.24,0,705.29
		c0,76.19,61.77,137.96,137.96,137.96c45.79,0,43.19-64.6,68.28-98.94l109.24-164.53l2.96,0.01c-4.5-11.31-6.98-23.64-6.98-36.56
		c0-54.64,44.3-98.94,98.94-98.94s98.94,44.3,98.94,98.94c0,13.08-2.54,25.57-7.16,37l75.7,0.18c-4.66-11.48-7.23-24.03-7.23-37.18
		c0-54.64,44.3-98.94,98.94-98.94c54.64,0,98.94,44.3,98.94,98.94c0,13.32-2.64,26.02-7.41,37.62l3.39,0.01l109.24,164.53
		c25.09,34.34,22.49,98.94,68.28,98.94c76.19,0,137.96-61.77,137.96-137.96C1080,683.31,1073.28,657.18,1063.28,638.08z
		 M312.82,348.8c0,7.83-6.35,14.18-14.18,14.18h-18.87c-7.83,0-14.18-6.35-14.18-14.18v-8.37c0-7.83,6.35-14.18,14.18-14.18h18.87
		c7.83,0,14.18,6.35,14.18,14.18V348.8z M351.19,397.02c0,7.83-6.35,14.18-14.18,14.18h-8.37c-7.83,0-14.18-6.35-14.18-14.18v-18.87
		c0-7.83,6.35-14.18,14.18-14.18h8.37c7.83,0,14.18,6.35,14.18,14.18V397.02z M351.19,310.46c0,7.83-6.35,14.18-14.18,14.18h-8.37
		c-7.83,0-14.18-6.35-14.18-14.18v-18.87c0-7.83,6.35-14.18,14.18-14.18h8.37c7.83,0,14.18,6.35,14.18,14.18V310.46z M399.38,348.8
		c0,7.83-6.35,14.18-14.18,14.18h-18.87c-7.83,0-14.18-6.35-14.18-14.18v-8.37c0-7.83,6.35-14.18,14.18-14.18h18.87
		c7.83,0,14.18,6.35,14.18,14.18V348.8z M487.44,318.38l4.17-5.59c0.13-0.17,0.16-0.39,0.09-0.59l-2.24-6.61
		c-0.17-0.5,0.31-0.98,0.81-0.81l6.61,2.24c0.2,0.07,0.42,0.03,0.59-0.09l5.59-4.17c0.42-0.32,1.03-0.01,1.02,0.52l-0.09,6.98
		c0,0.21,0.1,0.41,0.27,0.53l5.7,4.03c0.43,0.31,0.33,0.98-0.18,1.13l-6.67,2.07c-0.2,0.06-0.36,0.22-0.42,0.42l-2.07,6.67
		c-0.16,0.51-0.83,0.61-1.13,0.18l-4.03-5.7c-0.12-0.17-0.32-0.27-0.53-0.27l-6.98,0.09C487.43,319.41,487.13,318.81,487.44,318.38z
		 M539.87,412.06c-30.02,0-54.36-10.14-54.36-22.65h0c9.8,0,18.81-4.13,25.17-10.91c1.07,0.59,2.16,1.15,3.29,1.68
		c16.14,7.57,33.94,6.44,47.33-1.5c-14.05,2.95-29.57,1.4-44.09-5.41c-0.65-0.3-1.28-0.62-1.92-0.94c1.67-2.86,2.96-6,3.76-9.35
		l13.43-55.89c0.24-0.52-0.23-1.08-0.85-1.02l-21.65,2.17c-0.84,0.08-1.21-0.92-0.48-1.3l24.77-12.95c2.96-1.55,6.76-0.39,8.06,2.45
		l1.12,2.45c0.04,0.08,0.09,0.15,0.13,0.23l16.75,64.47c3.95,15.21,17.68,25.82,33.39,25.82h0.51
		C594.23,401.92,569.89,412.06,539.87,412.06z M651.35,311.21c0-13.47,10.92-24.39,24.39-24.39s24.39,10.92,24.39,24.39
		c0,13.47-10.92,24.39-24.39,24.39S651.35,324.68,651.35,311.21z M713.37,401.09c-13.47,0-24.39-10.92-24.39-24.39
		c0-13.47,10.92-24.39,24.39-24.39c13.47,0,24.39,10.92,24.39,24.39C737.75,390.17,726.83,401.09,713.37,401.09z M728,311.21
		c0-13.47,10.92-24.39,24.39-24.39c13.47,0,24.39,10.92,24.39,24.39c0,13.47-10.92,24.39-24.39,24.39
		C738.92,335.6,728,324.68,728,311.21z M790.01,401.09c-13.47,0-24.39-10.92-24.39-24.39c0-13.47,10.92-24.39,24.39-24.39
		s24.39,10.92,24.39,24.39C814.4,390.17,803.48,401.09,790.01,401.09z"/>
</g>
</svg>
