<?xml version="1.0" encoding="utf-8"?>
<!-- Generator: Adobe Illustrator 24.3.0, SVG Export Plug-In . SVG Version: 6.00 Build 0)  -->
<svg version="1.1" id="Camada_1" xmlns="http://www.w3.org/2000/svg" xmlns:xlink="http://www.w3.org/1999/xlink" x="0px" y="0px"
	 viewBox="0 0 1080 1080" style="enable-background:new 0 0 1080 1080;" xml:space="preserve">
<style type="text/css">
	.st0{fill:#FFFFFF;}
</style>
<g>
	<g>
		<path class="st0" d="M699.77,1080H391.75c-19.77,0-36.31-15-38.23-34.68l-60.63-620.87h505.75L738,1045.32
			C736.08,1065,719.54,1080,699.77,1080z"/>
	</g>
	<path class="st0" d="M356.39,417.74l-16.22-154.3c-1.14-10.86,6.74-20.59,17.6-21.73l36.87-3.88c10.86-1.14,20.59,6.74,21.73,17.6
		l17.06,162.31"/>
	<g>
		<path class="st0" d="M419.34,187.49c0-0.13,0.01-0.25,0.01-0.38c0-0.98-0.04-1.94-0.09-2.91
			c-1.95-65.59-55.69-118.17-121.75-118.17c-5.48,0-10.86,0.4-16.15,1.1c7.65,1.61,15.03,3.97,22.08,6.94
			c16.56,11.51,50.91,34.61,23.96,88.51l0.24,0.36c-4.05,7.13-6.37,15.38-6.37,24.16c0,27.09,21.96,49.04,49.04,49.04
			c26.83,0,48.61-21.55,49.02-48.28l0.02,0C419.35,187.75,419.34,187.62,419.34,187.49z"/>
	</g>
	<g>
		<polygon class="st0" points="689.12,116.81 757.71,124.01 736.07,0 		"/>
	</g>
	<path class="st0" d="M683.1,124.61l-30.83,293.29l76.96,0.9l30.08-286.18L683.1,124.61z M686.55,242.19l2.15-2.32
		c0.06-0.07,0.09-0.17,0.07-0.26l-0.7-3.09c-0.05-0.23,0.19-0.43,0.4-0.33l2.87,1.32c0.09,0.04,0.19,0.03,0.27-0.01l2.72-1.62
		c0.21-0.12,0.46,0.04,0.44,0.28l-0.37,3.14c-0.01,0.09,0.02,0.19,0.1,0.25l2.38,2.09c0.18,0.16,0.1,0.46-0.13,0.5l-3.1,0.62
		c-0.09,0.02-0.17,0.08-0.21,0.17l-1.25,2.91c-0.09,0.22-0.4,0.24-0.52,0.03l-1.55-2.76c-0.05-0.08-0.13-0.14-0.23-0.15l-3.15-0.29
		C686.5,242.65,686.39,242.37,686.55,242.19z M705.75,286.91c-13.54-1.42-24.03-7.15-23.44-12.79c4.42,0.46,8.68-0.97,11.87-3.73
		c0.45,0.32,0.92,0.62,1.4,0.91c6.92,4.18,15,4.51,21.41,1.57c-6.48,0.66-13.4-0.77-19.62-4.53c-0.28-0.17-0.55-0.34-0.82-0.51
		c0.89-1.21,1.62-2.57,2.14-4.04l8.71-24.57c0.13-0.22-0.05-0.5-0.34-0.5l-9.87-0.05c-0.38,0-0.5-0.47-0.16-0.61l11.78-4.66
		c1.41-0.56,3.07,0.14,3.52,1.49l0.39,1.16c0.02,0.04,0.04,0.07,0.05,0.11l4.5,29.86c1.06,7.04,6.75,12.48,13.83,13.23l0.23,0.02
		C730.74,284.92,719.29,288.34,705.75,286.91z"/>
</g>
</svg>
