<?xml version="1.0" encoding="utf-8"?>
<!-- Generator: Adobe Illustrator 24.1.2, SVG Export Plug-In . SVG Version: 6.00 Build 0)  -->
<svg version="1.1" id="Camada_1" xmlns="http://www.w3.org/2000/svg" xmlns:xlink="http://www.w3.org/1999/xlink" x="0px" y="0px"
	 viewBox="0 0 1080 1080" style="enable-background:new 0 0 1080 1080;" xml:space="preserve">
<style type="text/css">
	.st0{fill:#FFFFFF;}
</style>
<path class="st0" d="M1072.9,366.6c-2.9-30.6-6.7-61-15.6-90.6c-5.2-17.2-13.8-32.7-25.4-46.3c-16.3-19.2-36.4-33.2-60.4-41.1
	c-15.9-5.2-32.4-7.4-48.9-9.7c-19.4-2.7-39-4-58.4-6c-11.7-1.2-23.5-1.8-35.3-2.2c-27.1-1-54.1-2.8-81.2-3.5
	c-23.8-0.6-47.6-1.9-71.4-1.9c-2,0-4.7,1.3-5.7-2c-86,0-172.1,0-258.1,0c-0.3,1.8-1.7,2-3.1,2c-1.9,0-3.8,0-5.7,0
	c-21,0.4-42.1,0.4-63.1,1.2c-17.5,0.7-35,1.5-52.6,2.1c-17.8,0.6-35.7,1.7-53.5,3.1c-34.4,2.7-68.8,4.8-102.8,11.5
	c-23.5,4.6-44.1,15.1-62.3,30.9c-26.4,23-40.5,52.3-46.7,86.2c-4.2,23-7.3,46.2-9.6,69.5c-1.7,17.4-3.1,34.9-4.1,52.3
	c-0.9,14.4-2,28.7-2,43.2c0,1.7,0.5,3.7-2,4.2c0,47.4,0,94.7,0,142.1c2.2,0.4,2,2.1,2,3.6c-0.1,21.9,1.6,43.7,3.4,65.5
	c3.2,39,6.6,78.1,16.4,116.2c5.5,21.4,15.6,40.3,30.5,56.8c22.6,24.9,50.8,38.8,83.6,44c21.6,3.4,43.3,5.9,65.1,7.6
	c20.2,1.6,40.5,3.1,60.7,4.2c23.8,1.3,47.5,2.2,71.3,3.2c24.1,1,48.3,1.9,72.4,2c1.9,0,4.4-1,5.2,2c85.7,0,171.4,0,257.1,0
	c0.2-1.2,0.9-1.9,2.1-1.9c1.2-0.1,2.4-0.1,3.7-0.1c22.1,0.6,44.2-0.8,66.2-1.3c17.3-0.4,34.7-1.3,52.1-2c18.5-0.8,37.1-1.7,55.6-3.1
	c34.4-2.7,68.9-4.8,102.8-11.6c24.7-5,46.4-16,65.1-33.2c26.3-24.1,38.8-54.8,44.4-89.2c3.2-19.2,5.5-38.4,8.2-57.6
	c0.4-3-1.8-6.7,2.1-8.9c0-112.5,0-225,0-337.5C1072.8,369.8,1073.1,368.1,1072.9,366.6z M407.5,453.4l10.5-14.1
	c0.4-0.5,0.4-1,0.3-1.5l-5.7-16.7c-0.4-1.3,0.8-2.5,2.1-2.1l16.7,5.7c0.5,0.2,1.1,0.1,1.5-0.2l14.1-10.5c1.1-0.8,2.6,0,2.6,1.3
	l-0.2,17.6c0,0.5,0.3,1,0.7,1.4l14.4,10.2c1.1,0.8,0.8,2.5-0.4,2.9l-16.8,5.2c-0.5,0.2-0.9,0.5-1.1,1.1l-5.2,16.8
	c-0.4,1.3-2.1,1.6-2.9,0.4l-10.2-14.4c-0.3-0.4-0.8-0.7-1.4-0.7l-17.6,0.2C407.5,456,406.7,454.5,407.5,453.4z M540,690
	c-75.8,0-137.3-25.6-137.3-57.2c24.8,0,47.5-10.4,63.6-27.6c2.7,1.5,5.5,2.9,8.3,4.3c40.8,19.1,85.7,16.3,119.6-3.8
	c-35.5,7.5-74.7,3.5-111.4-13.7c-1.6-0.8-3.2-1.6-4.8-2.4c4.2-7.2,7.5-15.1,9.5-23.6l33.9-141.2c0.6-1.3-0.6-2.7-2.2-2.6l-54.7,5.5
	c-2.1,0.2-3.1-2.3-1.2-3.3l62.6-32.7c7.5-3.9,17.1-1,20.3,6.2l2.8,6.2c0.1,0.2,0.2,0.4,0.3,0.6l42.3,162.9
	c10,38.4,44.7,65.2,84.4,65.2h1.3C677.3,664.4,615.8,690,540,690z"/>
</svg>
