<?xml version="1.0" encoding="utf-8"?>
<!-- Generator: Adobe Illustrator 24.3.0, SVG Export Plug-In . SVG Version: 6.00 Build 0)  -->
<svg version="1.1" id="Capa_1" xmlns="http://www.w3.org/2000/svg" xmlns:xlink="http://www.w3.org/1999/xlink" x="0px" y="0px"
	 viewBox="0 0 512.02 512.02" style="enable-background:new 0 0 512.02 512.02;" xml:space="preserve">
<style type="text/css">
	.st0{fill:#FFFFFF;}
</style>
<g transform="translate(-1)">
	<g>
		<path class="st0" d="M487.41,34.14H341.48c-4.08-19.85-21.54-34.1-41.8-34.13H86.34c-20.26,0.03-37.72,14.28-41.8,34.13H26.61
			C12.04,34.62,0.59,46.79,1.01,61.37v355.16c-0.42,14.57,11.03,26.74,25.6,27.22h165l-17.5,51.2h-10.96
			c-4.71,0-8.53,3.82-8.53,8.53s3.82,8.53,8.53,8.53h187.73c4.71,0,8.53-3.82,8.53-8.53s-3.82-8.53-8.53-8.53h-10.96l-17.5-51.2h165
			c14.57-0.48,26.02-12.65,25.6-27.22V61.37C513.43,46.79,501.98,34.62,487.41,34.14z M86.34,17.08h213.33
			c14.13,0.01,25.58,11.47,25.6,25.6v128c-0.02,14.13-11.47,25.58-25.6,25.6H163.14c-2.26,0-4.43,0.9-6.03,2.5l-45.17,45.17v-39.13
			c0-4.71-3.82-8.53-8.53-8.53h-8.53c-18.84-0.02-34.11-15.29-34.13-34.13V42.68C60.76,28.55,72.21,17.09,86.34,17.08z M26.61,51.21
			h17.07v110.93c0.03,28.26,22.94,51.17,51.2,51.2v42.67h-8.53c-4.71,0-8.53,3.82-8.53,8.53s3.82,8.53,8.53,8.53h110.93
			c4.71,0,8.53-3.82,8.53-8.53s-3.82-8.53-8.53-8.53h-73.27l42.67-42.67h133c23.55-0.03,42.64-19.11,42.67-42.67V51.21h145.07
			c5.11,0.55,8.87,5.03,8.53,10.15v297.05H18.08V61.37C17.74,56.24,21.5,51.76,26.61,51.21z M321.88,494.94H192.14l17.5-51.2h94.73
			L321.88,494.94z M487.41,426.68H26.61c-5.11-0.55-8.87-5.03-8.53-10.15v-41.05h477.87v41.05
			C496.28,421.65,492.52,426.13,487.41,426.68z"/>
		<path class="st0" d="M122.98,142.58c3.34,3.28,8.7,3.26,12.01-0.05s3.34-8.67,0.05-12.01l-28.1-28.1l28.1-28.1
			c3.3-3.34,3.28-8.71-0.04-12.03c-3.32-3.32-8.69-3.33-12.03-0.04L88.85,96.38c-1.6,1.6-2.5,3.77-2.5,6.03s0.9,4.43,2.5,6.03
			L122.98,142.58z"/>
		<path class="st0" d="M163.14,119.48c4.71,0,8.53-3.82,8.53-8.53V68.28c0-4.71-3.82-8.53-8.53-8.53s-8.53,3.82-8.53,8.53v42.67
			C154.61,115.66,158.43,119.48,163.14,119.48z"/>
		<path class="st0" d="M155.29,139.79c0.17,0.52,0.43,1.01,0.77,1.45c0.29,0.49,0.64,0.95,1.02,1.37c0.83,0.75,1.78,1.36,2.81,1.79
			c1.03,0.44,2.13,0.67,3.25,0.68c2.26-0.03,4.42-0.92,6.06-2.48c0.34-0.43,0.68-0.85,1.02-1.37c0.34-0.43,0.6-0.93,0.77-1.45
			c0.24-0.49,0.42-1,0.51-1.54c0.1-0.56,0.15-1.13,0.17-1.7c-0.03-2.26-0.92-4.42-2.48-6.06c-2.49-2.35-6.12-3.05-9.3-1.8
			c-1.03,0.43-1.99,1.04-2.81,1.8c-1.56,1.63-2.44,3.8-2.48,6.06c0.01,0.57,0.07,1.14,0.17,1.7
			C154.87,138.78,155.04,139.3,155.29,139.79z"/>
		<path class="st0" d="M197.28,110.94h25.6c4.71,0,8.53-3.82,8.53-8.53s-3.82-8.53-8.53-8.53h-25.6c-4.71,0-8.53,3.82-8.53,8.53
			C188.74,107.12,192.57,110.94,197.28,110.94z"/>
		<path class="st0" d="M257.01,110.94h25.6c4.71,0,8.53-3.82,8.53-8.53s-3.82-8.53-8.53-8.53h-25.6c-4.71,0-8.53,3.82-8.53,8.53
			C248.48,107.12,252.3,110.94,257.01,110.94z"/>
		<path class="st0" d="M43.68,273.08h8.53c4.71,0,8.53-3.82,8.53-8.53s-3.82-8.53-8.53-8.53h-8.53c-4.71,0-8.53,3.82-8.53,8.53
			S38.97,273.08,43.68,273.08z"/>
		<path class="st0" d="M43.68,307.21h8.53c4.71,0,8.53-3.82,8.53-8.53s-3.82-8.53-8.53-8.53h-8.53c-4.71,0-8.53,3.82-8.53,8.53
			C35.14,303.39,38.97,307.21,43.68,307.21z"/>
		<path class="st0" d="M43.68,341.34h8.53c4.71,0,8.53-3.82,8.53-8.53s-3.82-8.53-8.53-8.53h-8.53c-4.71,0-8.53,3.82-8.53,8.53
			C35.14,337.52,38.97,341.34,43.68,341.34z"/>
		<path class="st0" d="M231.41,273.08h59.73c4.71,0,8.53-3.82,8.53-8.53s-3.82-8.53-8.53-8.53h-59.73c-4.71,0-8.53,3.82-8.53,8.53
			S226.7,273.08,231.41,273.08z"/>
		<path class="st0" d="M325.28,273.08h25.6c4.71,0,8.53-3.82,8.53-8.53s-3.82-8.53-8.53-8.53h-25.6c-4.71,0-8.53,3.82-8.53,8.53
			S320.57,273.08,325.28,273.08z"/>
		<path class="st0" d="M385.01,273.08h34.13c4.71,0,8.53-3.82,8.53-8.53s-3.82-8.53-8.53-8.53h-34.13c-4.71,0-8.53,3.82-8.53,8.53
			S380.3,273.08,385.01,273.08z"/>
		<path class="st0" d="M453.28,273.08h17.07c4.71,0,8.53-3.82,8.53-8.53s-3.82-8.53-8.53-8.53h-17.07c-4.71,0-8.53,3.82-8.53,8.53
			S448.57,273.08,453.28,273.08z"/>
		<path class="st0" d="M111.94,307.21h51.2c4.71,0,8.53-3.82,8.53-8.53s-3.82-8.53-8.53-8.53h-51.2c-4.71,0-8.53,3.82-8.53,8.53
			C103.41,303.39,107.23,307.21,111.94,307.21z"/>
		<path class="st0" d="M197.28,307.21h42.67c4.71,0,8.53-3.82,8.53-8.53s-3.82-8.53-8.53-8.53h-42.67c-4.71,0-8.53,3.82-8.53,8.53
			C188.74,303.39,192.57,307.21,197.28,307.21z"/>
		<path class="st0" d="M265.54,298.68c0,4.71,3.82,8.53,8.53,8.53h34.13c4.71,0,8.53-3.82,8.53-8.53s-3.82-8.53-8.53-8.53h-34.13
			C269.36,290.14,265.54,293.96,265.54,298.68z"/>
		<path class="st0" d="M393.54,298.68c0-4.71-3.82-8.53-8.53-8.53h-42.67c-4.71,0-8.53,3.82-8.53,8.53s3.82,8.53,8.53,8.53h42.67
			C389.72,307.21,393.54,303.39,393.54,298.68z"/>
		<path class="st0" d="M470.34,290.14h-51.2c-4.71,0-8.53,3.82-8.53,8.53s3.82,8.53,8.53,8.53h51.2c4.71,0,8.53-3.82,8.53-8.53
			C478.88,293.96,475.06,290.14,470.34,290.14z"/>
		<path class="st0" d="M86.34,341.34h34.13c4.71,0,8.53-3.82,8.53-8.53s-3.82-8.53-8.53-8.53H86.34c-4.71,0-8.53,3.82-8.53,8.53
			S81.63,341.34,86.34,341.34z"/>
		<path class="st0" d="M146.08,332.81c0,4.71,3.82,8.53,8.53,8.53h34.13c4.71,0,8.53-3.82,8.53-8.53s-3.82-8.53-8.53-8.53h-34.13
			C149.9,324.28,146.08,328.1,146.08,332.81z"/>
		<path class="st0" d="M265.54,324.28h-42.67c-4.71,0-8.53,3.82-8.53,8.53s3.82,8.53,8.53,8.53h42.67c4.71,0,8.53-3.82,8.53-8.53
			C274.08,328.1,270.26,324.28,265.54,324.28z"/>
		<path class="st0" d="M325.28,324.28h-25.6c-4.71,0-8.53,3.82-8.53,8.53s3.82,8.53,8.53,8.53h25.6c4.71,0,8.53-3.82,8.53-8.53
			S329.99,324.28,325.28,324.28z"/>
		<path class="st0" d="M410.61,324.28h-51.2c-4.71,0-8.53,3.82-8.53,8.53s3.82,8.53,8.53,8.53h51.2c4.71,0,8.53-3.82,8.53-8.53
			C419.14,328.1,415.32,324.28,410.61,324.28z"/>
		<path class="st0" d="M470.34,324.28h-25.6c-4.71,0-8.53,3.82-8.53,8.53s3.82,8.53,8.53,8.53h25.6c4.71,0,8.53-3.82,8.53-8.53
			C478.88,328.1,475.06,324.28,470.34,324.28z"/>
	</g>
</g>
</svg>
