<?xml version="1.0" encoding="iso-8859-1"?>
<!-- Generator: Adobe Illustrator 19.0.0, SVG Export Plug-In . SVG Version: 6.00 Build 0)  -->
<svg version="1.1" id="Capa_1" xmlns="http://www.w3.org/2000/svg" xmlns:xlink="http://www.w3.org/1999/xlink" x="0px" y="0px"
	 viewBox="0 0 512.022 512.022" style="enable-background:new 0 0 512.022 512.022;" xml:space="preserve">
<g transform="translate(-1)">
	<g transform="translate(1 1)">
		<polygon style="fill:#CFD8DC;" points="309.481,425.678 256.011,425.678 202.541,425.678 179.211,502.478 256.011,502.478 
			332.811,502.478 		"/>
		<path style="fill:#283593;" d="M503.478,60.366v331.179c0.384,9.85-7.222,18.179-17.067,18.688h-460.8
			c-9.845-0.509-17.451-8.838-17.067-18.688V60.366c-0.364-9.684,6.979-17.93,16.64-18.688h461.227
			C496.256,42.187,503.862,50.515,503.478,60.366z"/>
		<path style="fill:#3F51B5;" d="M477.878,60.366v331.179c0.384,9.85-7.222,18.179-17.067,18.688h-435.2
			c-9.845-0.509-17.451-8.838-17.067-18.688V60.366c-0.364-9.684,6.979-17.93,16.64-18.688h435.627
			C470.656,42.187,478.262,50.515,477.878,60.366z"/>
		<path style="fill:#607D8B;" d="M503.478,365.944v49.579c0.384,9.85-7.222,18.179-17.067,18.688h-460.8
			c-9.845-0.509-17.451-8.838-17.067-18.688v-49.579H503.478z"/>
		<path style="fill:#CFD8DC;" d="M477.878,365.944v49.579c0.598,9.598-6.599,17.909-16.184,18.688H24.728
			c-9.585-0.779-16.782-9.09-16.184-18.688v-49.579H477.878z"/>
		<path style="fill:#D84315;" d="M332.811,41.678v128c0.002,9.053-3.593,17.737-9.995,24.139
			c-6.402,6.402-15.085,9.997-24.139,9.995h-25.6c9.053,0.002,17.737-3.593,24.139-9.995c6.402-6.402,9.997-15.085,9.995-24.139
			v-128c0.003-9.054-3.593-17.737-9.995-24.139s-15.085-9.997-24.139-9.995l25.6,0c9.054-0.003,17.737,3.593,24.139,9.995
			C329.218,23.941,332.814,32.624,332.811,41.678z"/>
		<path style="fill:#FF5722;" d="M307.211,41.678v128c0.002,9.053-3.593,17.737-9.995,24.139
			c-6.402,6.402-15.085,9.997-24.139,9.995H162.144l-59.733,59.733v-59.733h-8.533c-23.561-0.009-42.658-19.106-42.667-42.667
			V41.678c-0.003-9.054,3.593-17.737,9.995-24.139c6.402-6.402,15.085-9.997,24.139-9.995h187.733
			c9.053-0.003,17.737,3.593,24.139,9.995S307.214,32.624,307.211,41.678z"/>
	</g>
	<g>
		<path d="M487.411,34.144H341.482c-4.08-19.85-21.539-34.105-41.804-34.133H86.344C66.08,0.039,48.62,14.294,44.54,34.144H26.611
			c-14.573,0.478-26.017,12.646-25.6,27.221v355.158c-0.417,14.574,11.027,26.743,25.6,27.221H191.61l-17.5,51.2h-10.965
			c-4.713,0-8.533,3.82-8.533,8.533s3.821,8.533,8.533,8.533h187.733c4.713,0,8.533-3.82,8.533-8.533s-3.82-8.533-8.533-8.533
			h-10.965l-17.5-51.2h164.999c14.573-0.478,26.017-12.646,25.6-27.221V61.365C513.428,46.791,501.984,34.622,487.411,34.144z
			 M86.344,17.078h213.333c14.132,0.015,25.585,11.468,25.6,25.6v128c-0.015,14.132-11.468,25.585-25.6,25.6H163.144
			c-2.263,0.001-4.433,0.9-6.033,2.5l-45.167,45.166v-39.133c0-4.713-3.821-8.533-8.533-8.533h-8.533
			c-18.842-0.022-34.112-15.291-34.133-34.133V42.678C60.76,28.546,72.212,17.093,86.344,17.078z M26.611,51.211h17.067v110.933
			c0.031,28.264,22.936,51.169,51.2,51.2v42.667h-8.533c-4.713,0-8.533,3.82-8.533,8.533s3.821,8.533,8.533,8.533h110.933
			c4.713,0,8.533-3.821,8.533-8.533s-3.821-8.533-8.533-8.533h-73.267l42.667-42.667h133c23.553-0.028,42.639-19.114,42.667-42.667
			V51.211h145.067c5.107,0.55,8.871,5.029,8.533,10.154v297.046H18.078V61.365C17.74,56.24,21.504,51.761,26.611,51.211z
			 M321.878,494.944H192.144l17.5-51.2h94.733L321.878,494.944z M487.411,426.678h-460.8c-5.107-0.55-8.871-5.029-8.533-10.154
			v-41.046h477.867v41.046C496.282,421.649,492.518,426.128,487.411,426.678z"/>
		<path d="M122.978,142.577c3.341,3.281,8.701,3.256,12.012-0.054c3.311-3.311,3.335-8.671,0.054-12.012l-28.1-28.1l28.1-28.1
			c3.296-3.338,3.279-8.711-0.038-12.029c-3.317-3.317-8.691-3.334-12.029-0.038L88.845,96.378c-1.601,1.6-2.5,3.77-2.5,6.033
			s0.899,4.433,2.5,6.033L122.978,142.577z"/>
		<path d="M163.144,119.478c4.713,0,8.533-3.821,8.533-8.533V68.278c0-4.713-3.82-8.533-8.533-8.533s-8.533,3.821-8.533,8.533
			v42.667C154.611,115.657,158.432,119.478,163.144,119.478z"/>
		<path d="M155.29,139.786c0.17,0.525,0.431,1.015,0.771,1.45c0.293,0.49,0.636,0.949,1.025,1.367
			c0.83,0.752,1.781,1.358,2.813,1.792c1.027,0.438,2.13,0.67,3.246,0.683c2.259-0.034,4.422-0.918,6.059-2.475
			c0.341-0.429,0.683-0.854,1.021-1.367c0.34-0.435,0.601-0.925,0.771-1.45c0.245-0.485,0.418-1.003,0.513-1.538
			c0.098-0.563,0.155-1.133,0.17-1.704c-0.033-2.259-0.917-4.422-2.475-6.059c-2.493-2.347-6.116-3.046-9.304-1.796
			c-1.033,0.434-1.985,1.041-2.813,1.796c-1.559,1.635-2.443,3.799-2.475,6.059c0.013,0.572,0.071,1.141,0.171,1.704
			C154.873,138.784,155.045,139.302,155.29,139.786z"/>
		<path d="M197.278,110.944h25.6c4.713,0,8.533-3.821,8.533-8.533c0-4.713-3.821-8.533-8.533-8.533h-25.6
			c-4.713,0-8.533,3.821-8.533,8.533C188.744,107.124,192.565,110.944,197.278,110.944z"/>
		<path d="M257.011,110.944h25.6c4.713,0,8.533-3.821,8.533-8.533c0-4.713-3.82-8.533-8.533-8.533h-25.6
			c-4.713,0-8.533,3.821-8.533,8.533C248.478,107.124,252.298,110.944,257.011,110.944z"/>
		<path d="M43.678,273.078h8.533c4.713,0,8.533-3.821,8.533-8.533s-3.821-8.533-8.533-8.533h-8.533c-4.713,0-8.533,3.82-8.533,8.533
			S38.965,273.078,43.678,273.078z"/>
		<path d="M43.678,307.211h8.533c4.713,0,8.533-3.821,8.533-8.533c0-4.713-3.821-8.533-8.533-8.533h-8.533
			c-4.713,0-8.533,3.821-8.533,8.533C35.144,303.391,38.965,307.211,43.678,307.211z"/>
		<path d="M43.678,341.344h8.533c4.713,0,8.533-3.821,8.533-8.533c0-4.713-3.821-8.533-8.533-8.533h-8.533
			c-4.713,0-8.533,3.821-8.533,8.533C35.144,337.524,38.965,341.344,43.678,341.344z"/>
		<path d="M231.411,273.078h59.733c4.713,0,8.533-3.821,8.533-8.533s-3.82-8.533-8.533-8.533h-59.733
			c-4.713,0-8.533,3.82-8.533,8.533S226.698,273.078,231.411,273.078z"/>
		<path d="M325.278,273.078h25.6c4.713,0,8.533-3.821,8.533-8.533s-3.82-8.533-8.533-8.533h-25.6c-4.713,0-8.533,3.82-8.533,8.533
			S320.565,273.078,325.278,273.078z"/>
		<path d="M385.011,273.078h34.133c4.713,0,8.533-3.821,8.533-8.533s-3.821-8.533-8.533-8.533h-34.133
			c-4.713,0-8.533,3.82-8.533,8.533S380.298,273.078,385.011,273.078z"/>
		<path d="M453.278,273.078h17.067c4.713,0,8.533-3.821,8.533-8.533s-3.82-8.533-8.533-8.533h-17.067
			c-4.713,0-8.533,3.82-8.533,8.533S448.565,273.078,453.278,273.078z"/>
		<path d="M111.944,307.211h51.2c4.713,0,8.533-3.821,8.533-8.533c0-4.713-3.82-8.533-8.533-8.533h-51.2
			c-4.713,0-8.533,3.821-8.533,8.533C103.411,303.391,107.232,307.211,111.944,307.211z"/>
		<path d="M197.278,307.211h42.667c4.713,0,8.533-3.821,8.533-8.533c0-4.713-3.82-8.533-8.533-8.533h-42.667
			c-4.713,0-8.533,3.821-8.533,8.533C188.744,303.391,192.565,307.211,197.278,307.211z"/>
		<path d="M265.544,298.678c0,4.713,3.821,8.533,8.533,8.533h34.133c4.713,0,8.533-3.821,8.533-8.533
			c0-4.713-3.82-8.533-8.533-8.533h-34.133C269.365,290.144,265.544,293.965,265.544,298.678z"/>
		<path d="M393.544,298.678c0-4.713-3.82-8.533-8.533-8.533h-42.667c-4.713,0-8.533,3.821-8.533,8.533
			c0,4.713,3.82,8.533,8.533,8.533h42.667C389.724,307.211,393.544,303.391,393.544,298.678z"/>
		<path d="M470.344,290.144h-51.2c-4.713,0-8.533,3.821-8.533,8.533c0,4.713,3.82,8.533,8.533,8.533h51.2
			c4.713,0,8.533-3.821,8.533-8.533C478.878,293.965,475.057,290.144,470.344,290.144z"/>
		<path d="M86.344,341.344h34.133c4.713,0,8.533-3.821,8.533-8.533c0-4.713-3.821-8.533-8.533-8.533H86.344
			c-4.713,0-8.533,3.821-8.533,8.533C77.811,337.524,81.632,341.344,86.344,341.344z"/>
		<path d="M146.078,332.811c0,4.713,3.82,8.533,8.533,8.533h34.133c4.713,0,8.533-3.821,8.533-8.533
			c0-4.713-3.821-8.533-8.533-8.533h-34.133C149.898,324.278,146.078,328.098,146.078,332.811z"/>
		<path d="M265.544,324.278h-42.667c-4.713,0-8.533,3.821-8.533,8.533c0,4.713,3.821,8.533,8.533,8.533h42.667
			c4.713,0,8.533-3.821,8.533-8.533C274.078,328.098,270.257,324.278,265.544,324.278z"/>
		<path d="M325.278,324.278h-25.6c-4.713,0-8.533,3.821-8.533,8.533c0,4.713,3.821,8.533,8.533,8.533h25.6
			c4.713,0,8.533-3.821,8.533-8.533C333.811,328.098,329.991,324.278,325.278,324.278z"/>
		<path d="M410.611,324.278h-51.2c-4.713,0-8.533,3.821-8.533,8.533c0,4.713,3.82,8.533,8.533,8.533h51.2
			c4.713,0,8.533-3.821,8.533-8.533C419.144,328.098,415.324,324.278,410.611,324.278z"/>
		<path d="M470.344,324.278h-25.6c-4.713,0-8.533,3.821-8.533,8.533c0,4.713,3.82,8.533,8.533,8.533h25.6
			c4.713,0,8.533-3.821,8.533-8.533C478.878,328.098,475.057,324.278,470.344,324.278z"/>
	</g>
</g>
<g>
</g>
<g>
</g>
<g>
</g>
<g>
</g>
<g>
</g>
<g>
</g>
<g>
</g>
<g>
</g>
<g>
</g>
<g>
</g>
<g>
</g>
<g>
</g>
<g>
</g>
<g>
</g>
<g>
</g>
</svg>
