<?xml version="1.0" encoding="utf-8"?>
<!-- Generator: Adobe Illustrator 24.3.0, SVG Export Plug-In . SVG Version: 6.00 Build 0)  -->
<svg version="1.1" id="Capa_1" xmlns="http://www.w3.org/2000/svg" xmlns:xlink="http://www.w3.org/1999/xlink" x="0px" y="0px"
	 viewBox="0 0 512 512" style="enable-background:new 0 0 512 512;" xml:space="preserve">
<style type="text/css">
	.st0{fill:#FFFFFF;}
</style>
<path class="st0" d="M504.5,120.48c-4.14,0-7.5,3.36-7.5,7.5v265.17H307.57l-3.08-5.34c4.12-4.18,7.69-8.89,10.62-14.01h120.7
	c4.14,0,7.5-3.36,7.5-7.5v-10.1c0-9.23,7.51-16.74,16.74-16.74h10.1c4.14,0,7.5-3.36,7.5-7.5V119.82c0-4.14-3.36-7.5-7.5-7.5h-10.1
	c-9.23,0-16.74-7.51-16.74-16.74v-10.1c0-4.14-3.36-7.5-7.5-7.5H158.49c-4.14,0-7.5,3.36-7.5,7.5s3.36,7.5,7.5,7.5h269.82v2.6
	c0,17.5,14.24,31.74,31.74,31.74h2.6v197.13h-2.6c-17.5,0-31.74,14.24-31.74,31.74v2.6H321.46c1.71-5.96,2.65-12.26,2.65-18.76
	c0-37.56-30.55-68.11-68.11-68.11s-68.11,30.55-68.11,68.11c0,6.51,0.94,12.8,2.65,18.76H83.69v-2.6c0-17.5-14.24-31.74-31.74-31.74
	h-2.6V127.32h2.6c17.5,0,31.74-14.24,31.74-31.74v-2.6h39.78c4.14,0,7.5-3.36,7.5-7.5s-3.36-7.5-7.5-7.5H76.19
	c-4.14,0-7.5,3.36-7.5,7.5v10.1c0,9.23-7.51,16.74-16.74,16.74h-10.1c-4.14,0-7.5,3.36-7.5,7.5v212.13c0,4.14,3.36,7.5,7.5,7.5h10.1
	c9.23,0,16.74,7.51,16.74,16.74v10.1c0,4.14,3.36,7.5,7.5,7.5h120.69c2.94,5.12,6.51,9.83,10.63,14.01l-3.08,5.34H15v-60.48
	c0-4.14-3.36-7.5-7.5-7.5s-7.5,3.36-7.5,7.5v67.98c0,4.14,3.36,7.5,7.5,7.5h188.27l-16.61,28.77c-0.99,1.72-1.26,3.77-0.75,5.69
	s1.77,3.56,3.49,4.55l34.99,20.2c1.18,0.68,2.47,1.01,3.74,1.01c2.59,0,5.11-1.35,6.5-3.75L256,414.63l28.86,49.99
	c0.99,1.72,2.63,2.98,4.55,3.49c0.64,0.17,1.29,0.26,1.94,0.26c1.3,0,2.6-0.34,3.75-1.01l34.99-20.2c3.59-2.07,4.82-6.66,2.74-10.24
	l-16.61-28.77H504.5c4.14,0,7.5-3.36,7.5-7.5V127.98C512,123.84,508.64,120.48,504.5,120.48L504.5,120.48z M256,286.93
	c29.28,0,53.11,23.83,53.11,53.11s-23.83,53.11-53.11,53.11c-29.29,0-53.11-23.83-53.11-53.11S226.71,286.93,256,286.93L256,286.93z
	 M217.9,450.62l-22-12.7l23.41-40.55c7.15,4.59,15.2,7.88,23.83,9.54L217.9,450.62z M294.1,450.62l-25.24-43.71
	c8.63-1.66,16.68-4.95,23.83-9.54l23.41,40.55L294.1,450.62z"/>
<path class="st0" d="M504.5,43.63H7.5c-4.14,0-7.5,3.36-7.5,7.5v246.51c0,4.14,3.36,7.5,7.5,7.5s7.5-3.36,7.5-7.5V58.63h482v34.3
	c0,4.14,3.36,7.5,7.5,7.5s7.5-3.36,7.5-7.5v-41.8C512,46.99,508.64,43.63,504.5,43.63z"/>
<path class="st0" d="M256,373.8c18.62,0,33.77-15.15,33.77-33.76s-15.15-33.76-33.77-33.76s-33.76,15.15-33.76,33.77
	S237.38,373.8,256,373.8L256,373.8z M256,321.27c10.35,0,18.77,8.42,18.77,18.77S266.35,358.8,256,358.8s-18.76-8.42-18.76-18.76
	S245.65,321.27,256,321.27z"/>
<path class="st0" d="M316.61,157.62c4.14,0,7.5-3.36,7.5-7.5V117.8c0-4.14-3.36-7.5-7.5-7.5H195.39c-4.14,0-7.5,3.36-7.5,7.5v32.32
	c0,4.14,3.36,7.5,7.5,7.5H316.61z M202.89,125.3h106.22v17.32H202.89V125.3z"/>
<path class="st0" d="M107.08,214.77c0,4.14,3.36,7.5,7.5,7.5h282.85c4.14,0,7.5-3.36,7.5-7.5s-3.36-7.5-7.5-7.5H114.58
	C110.43,207.27,107.08,210.63,107.08,214.77z"/>
<path class="st0" d="M147.48,182.45c0,4.14,3.36,7.5,7.5,7.5h202.03c4.14,0,7.5-3.36,7.5-7.5s-3.36-7.5-7.5-7.5H154.98
	C150.84,174.95,147.48,178.31,147.48,182.45z"/>
<path class="st0" d="M397.42,239.6H114.58c-4.14,0-7.5,3.36-7.5,7.5s3.36,7.5,7.5,7.5h282.85c4.14,0,7.5-3.36,7.5-7.5
	S401.57,239.6,397.42,239.6z"/>
</svg>
