<svg id="Capa_1" enable-background="new 0 0 512 512" height="512" viewBox="0 0 512 512" width="512" xmlns="http://www.w3.org/2000/svg"><g><g><path d="m7.5 51.129h497v349.516h-497z" fill="#5766cb"/></g><g><path d="m484.297 51.129h20.203v349.516h-20.203z" fill="#3342aa"/></g><g><path d="m470.154 119.82v212.134h-10.102c-13.39 0-24.244 10.854-24.244 24.244v10.102h-359.617v-10.102c0-13.39-10.854-24.244-24.244-24.244h-10.101v-212.134h10.102c13.39 0 24.244-10.854 24.244-24.244v-10.102h359.618v10.102c0 13.39 10.854 24.244 24.244 24.244z" fill="#d8e2f1"/></g><g><g><path d="m270.97 384.797h40.406v70.708h-40.406z" fill="#dd5790" transform="matrix(.866 -.5 .5 .866 -171.066 201.876)"/></g><g><path d="m200.623 384.797h40.406v70.708h-40.406z" fill="#dd5790" transform="matrix(-.866 -.5 .5 -.866 201.992 894.425)"/></g><g><path d="m326.348 440.668-34.992 20.203-23.598-40.871-11.758-20.365 34.992-20.203 14.233 24.648z" fill="#dd5790"/></g><g><path d="m256 399.635-11.758 20.365-23.598 40.871-34.992-20.203 21.123-36.588 14.233-24.648z" fill="#dd5790"/></g><g><path d="m221.008 379.432 34.992 20.203-11.758 20.365c-13.96-2.051-26.769-7.677-37.467-15.92z" fill="#da387d"/></g><g><path d="m305.225 404.08c-10.698 8.243-23.506 13.87-37.467 15.92l-11.758-20.365 34.992-20.203z" fill="#da387d"/></g><g><circle cx="256" cy="340.035" fill="#ffe07d" r="60.61"/></g><g><circle cx="256" cy="340.035" fill="#ecc32e" r="26.264"/></g></g><g><path d="m195.39 117.799h121.219v32.325h-121.219z" fill="#ffe07d"/></g><g><path d="m504.5 120.477c-4.143 0-7.5 3.358-7.5 7.5v265.167h-189.429l-3.082-5.339c4.116-4.177 7.689-8.886 10.625-14.007h120.695c4.143 0 7.5-3.358 7.5-7.5v-10.102c0-9.233 7.512-16.744 16.744-16.744h10.102c4.143 0 7.5-3.358 7.5-7.5v-212.132c0-4.142-3.357-7.5-7.5-7.5h-10.102c-9.232 0-16.744-7.511-16.744-16.744v-10.102c0-4.142-3.357-7.5-7.5-7.5h-277.318c-4.142 0-7.5 3.358-7.5 7.5s3.358 7.5 7.5 7.5h269.817v2.602c0 17.503 14.24 31.744 31.744 31.744h2.602v197.134h-2.602c-17.504 0-31.744 14.24-31.744 31.744v2.602h-106.848c1.713-5.965 2.65-12.256 2.65-18.764 0-37.556-30.554-68.11-68.109-68.11s-68.11 30.554-68.11 68.11c0 6.509.937 12.799 2.65 18.764h-106.85v-2.602c0-17.504-14.24-31.744-31.744-31.744h-2.602v-197.134h2.602c17.503 0 31.744-14.24 31.744-31.744v-2.602h39.781c4.142 0 7.5-3.358 7.5-7.5s-3.358-7.5-7.5-7.5h-47.281c-4.142 0-7.5 3.358-7.5 7.5v10.102c0 9.232-7.511 16.744-16.744 16.744h-10.101c-4.142 0-7.5 3.358-7.5 7.5v212.134c0 4.142 3.358 7.5 7.5 7.5h10.102c9.232 0 16.744 7.511 16.744 16.744v10.102c0 4.142 3.358 7.5 7.5 7.5h120.695c2.936 5.121 6.509 9.829 10.626 14.007l-3.082 5.338h-189.431v-60.48c0-4.142-3.358-7.5-7.5-7.5s-7.5 3.358-7.5 7.5v67.98c0 4.142 3.358 7.5 7.5 7.5h188.269l-16.612 28.772c-.995 1.723-1.264 3.77-.75 5.691.515 1.921 1.772 3.56 3.495 4.554l34.993 20.203c1.181.682 2.471 1.006 3.743 1.006 2.592 0 5.113-1.346 6.502-3.751l28.86-49.986 28.859 49.986c.994 1.723 2.633 2.979 4.554 3.495.639.171 1.291.255 1.941.255 1.305 0 2.6-.341 3.75-1.005l34.992-20.203c3.587-2.071 4.816-6.658 2.745-10.245l-16.611-28.772h188.27c4.143 0 7.5-3.358 7.5-7.5v-272.668c0-4.142-3.357-7.5-7.5-7.5zm-248.5 166.449c29.284 0 53.109 23.825 53.109 53.11s-23.825 53.109-53.109 53.109c-29.285 0-53.11-23.825-53.11-53.109s23.825-53.11 53.11-53.11zm-38.099 163.699-22.003-12.703 23.411-40.55c7.147 4.59 15.199 7.882 23.83 9.538zm76.199 0-25.239-43.714c8.631-1.657 16.682-4.949 23.83-9.539l23.411 40.55z"/><path d="m504.5 43.629h-497c-4.142 0-7.5 3.358-7.5 7.5v246.514c0 4.142 3.358 7.5 7.5 7.5s7.5-3.358 7.5-7.5v-239.014h482v34.3c0 4.142 3.357 7.5 7.5 7.5s7.5-3.358 7.5-7.5v-41.8c0-4.142-3.357-7.5-7.5-7.5z"/><path d="m256 373.8c18.618 0 33.765-15.146 33.765-33.764s-15.147-33.765-33.765-33.765-33.764 15.147-33.764 33.765 15.146 33.764 33.764 33.764zm0-52.529c10.347 0 18.765 8.418 18.765 18.765s-8.418 18.764-18.765 18.764-18.764-8.417-18.764-18.764 8.417-18.765 18.764-18.765z"/><path d="m316.609 157.625c4.143 0 7.5-3.358 7.5-7.5v-32.325c0-4.142-3.357-7.5-7.5-7.5h-121.219c-4.142 0-7.5 3.358-7.5 7.5v32.325c0 4.142 3.358 7.5 7.5 7.5zm-113.719-32.325h106.219v17.325h-106.219z"/><path d="m107.077 214.775c0 4.142 3.358 7.5 7.5 7.5h282.846c4.143 0 7.5-3.358 7.5-7.5s-3.357-7.5-7.5-7.5h-282.846c-4.142 0-7.5 3.358-7.5 7.5z"/><path d="m147.484 182.45c0 4.142 3.358 7.5 7.5 7.5h202.033c4.143 0 7.5-3.358 7.5-7.5s-3.357-7.5-7.5-7.5h-202.033c-4.142 0-7.5 3.358-7.5 7.5z"/><path d="m397.423 239.6h-282.846c-4.142 0-7.5 3.358-7.5 7.5s3.358 7.5 7.5 7.5h282.846c4.143 0 7.5-3.358 7.5-7.5s-3.358-7.5-7.5-7.5z"/><path d="m149.625 302.657c4.396 1.766 9.356.698 12.635-2.723l2.52-2.629c.641 3.492 3.7 6.138 7.376 6.138 4.142 0 7.5-3.358 7.5-7.5v-7.117c0-4.738-2.841-8.941-7.237-10.708-4.396-1.765-9.355-.699-12.635 2.723l-2.396 2.5v-1.886c0-4.685-2.796-8.87-7.125-10.663-4.328-1.792-9.265-.811-12.576 2.502l-28.413 28.413c-2.929 2.929-2.929 7.678 0 10.606 1.464 1.465 3.384 2.197 5.303 2.197s3.839-.732 5.303-2.197l22.507-22.507v2.143c.001 4.738 2.842 8.941 7.238 10.708z"/><path d="m374.892 302.657c4.395 1.765 9.355.697 12.634-2.723l2.521-2.63c.641 3.492 3.7 6.138 7.377 6.138 4.143 0 7.5-3.358 7.5-7.5v-7.117c0-4.738-2.841-8.941-7.237-10.708s-9.355-.698-12.635 2.722l-2.396 2.5v-1.885c0-4.685-2.797-8.87-7.124-10.662-4.327-1.794-9.265-.81-12.578 2.502l-28.412 28.413c-2.929 2.929-2.929 7.678 0 10.606 1.465 1.464 3.385 2.197 5.304 2.197s3.839-.732 5.304-2.197l22.507-22.507v2.143c-.003 4.738 2.838 8.941 7.235 10.708z"/></g></g></svg>