<?xml version="1.0" encoding="utf-8"?>
<!-- Generator: Adobe Illustrator 24.3.0, SVG Export Plug-In . SVG Version: 6.00 Build 0)  -->
<svg version="1.1" id="regular" xmlns="http://www.w3.org/2000/svg" xmlns:xlink="http://www.w3.org/1999/xlink" x="0px" y="0px"
	 viewBox="0 0 512 512" style="enable-background:new 0 0 512 512;" xml:space="preserve">
<style type="text/css">
	.st0{fill:#FFFFFF;}
</style>
<path class="st0" d="M256,298.67c-1.71,0-3.41-0.28-5.06-0.83l-240-80C2.56,215.07-1.97,206,0.83,197.62
	c2.77-8.38,11.84-12.93,20.25-10.11L256,265.79l234.94-78.31c8.41-2.79,17.45,1.75,20.25,10.11c2.79,8.38-1.73,17.45-10.11,20.25
	l-240,80C259.41,298.39,257.71,298.67,256,298.67L256,298.67z"/>
<path class="st0" d="M453.33,469.33H58.67C26.3,469.33,0,443.03,0,410.67V165.33c0-32.36,26.3-58.67,58.67-58.67h394.67
	c32.36,0,58.67,26.3,58.67,58.67v245.33C512,443.03,485.7,469.33,453.33,469.33z M58.67,138.67c-14.7,0-26.67,11.97-26.67,26.67
	v245.33c0,14.7,11.97,26.67,26.67,26.67h394.67c14.7,0,26.67-11.97,26.67-26.67V165.33c0-14.7-11.97-26.67-26.67-26.67L58.67,138.67
	L58.67,138.67z"/>
<path class="st0" d="M325.33,138.67c-8.83,0-16-7.17-16-16V80c0-2.94-2.39-5.33-5.33-5.33h-96c-2.94,0-5.33,2.39-5.33,5.33v42.67
	c0,8.83-7.17,16-16,16s-16-7.17-16-16V80c0-20.59,16.75-37.33,37.33-37.33h96c20.59,0,37.33,16.75,37.33,37.33v42.67
	C341.33,131.5,334.17,138.67,325.33,138.67z"/>
</svg>
