<?xml version="1.0" encoding="utf-8"?>
<!-- Generator: Adobe Illustrator 24.3.0, SVG Export Plug-In . SVG Version: 6.00 Build 0)  -->
<svg version="1.1" id="Capa_1" xmlns="http://www.w3.org/2000/svg" xmlns:xlink="http://www.w3.org/1999/xlink" x="0px" y="0px"
	 viewBox="0 0 455.1 455.1" style="enable-background:new 0 0 455.1 455.1;" xml:space="preserve">
<style type="text/css">
	.st0{fill:#FFFFFF;}
</style>
<path class="st0" d="M357.1,357.1c-10.6,10.6-28.4,10.6-39,0l-90.5-90.5l-90.5,90.5c-10.6,10.6-28.4,10.6-39,0s-10.6-28.4,0-39
	l90.5-90.5L98,137.1c-10.6-10.6-10.6-28.4,0-39c10.6-10.6,28.4-10.6,39,0l90.5,90.5L318,98c10.6-10.6,28.4-10.6,39,0s10.6,28.4,0,39
	l-90.5,90.5l90.5,90.5C367.7,328.7,367.7,346.4,357.1,357.1z"/>
</svg>
